<?xml version="1.0" standalone="no"?>
<!DOCTYPE svg PUBLIC "-//W3C//DTD SVG 1.1//EN" "http://www.w3.org/Graphics/SVG/1.1/DTD/svg11.dtd" >
<svg>
<metadata>
Created by FontForge 20120731 at Tue Oct 18 12:14:20 2016
 By ,,,
Copyright (c) 1989 Adobe Systems Incorporated.  All Rights Reserved.Avenir is a registered trademark of Linotype AG and/or its subsidiaries.
</metadata>
<defs>
<font id="AvenirLT-BlackOblique" horiz-adv-x="260" >
  <font-face 
    font-family="Avenir LT 65 Medium"
    font-weight="700"
    font-style="oblique"
    font-stretch="normal"
    units-per-em="1000"
    panose-1="2 0 10 3 2 0 0 2 0 3"
    ascent="800"
    descent="-200"
    x-height="486"
    cap-height="708"
    bbox="-159 -240 1159.72 953"
    underline-thickness="50"
    underline-position="-75"
    slope="-8"
    unicode-range="U+0020-FB02"
  />
<missing-glyph horiz-adv-x="296" 
 />
    <glyph glyph-name=".notdef" horiz-adv-x="296" 
 />
    <glyph glyph-name=".null" horiz-adv-x="0" 
 />
    <glyph glyph-name="nonmarkingreturn" horiz-adv-x="333" 
 />
    <glyph glyph-name="space" unicode=" " horiz-adv-x="296" 
 />
    <glyph glyph-name="space" unicode="&#xa0;" horiz-adv-x="296" 
 />
    <glyph glyph-name="exclam" unicode="!" horiz-adv-x="444" 
d="M142 86q3 19 12.5 36t23.5 29.5t32 19.5t37 7q38 0 61 -27t18 -65q-3 -19 -12.5 -36t-23.5 -29.5t-32 -19.5t-37 -7q-38 0 -61 27t-18 65zM330 234h-150l67 474h150z" />
    <glyph glyph-name="quotedbl" unicode="&#x22;" horiz-adv-x="520" 
d="M181 708h126l-40 -282h-126zM413 708h126l-40 -282h-126z" />
    <glyph glyph-name="numbersign" unicode="#" horiz-adv-x="592" 
d="M413 417h-99l-35 -126h99zM157 201h-84l13 90h96l35 126h-84l12 90h96l57 201h97l-57 -201h99l57 201h97l-57 -201h84l-12 -90h-96l-35 -126h84l-13 -90h-96l-56 -201h-97l56 201h-99l-56 -201h-97z" />
    <glyph glyph-name="dollar" unicode="$" horiz-adv-x="592" 
d="M346 128q16 3 32 8.5t29 14.5t22.5 21.5t11.5 29.5q2 16 -1.5 27t-11.5 18.5t-19.5 13t-23.5 10.5l-18 7zM343 579q-29 -6 -52.5 -21t-28.5 -47q-3 -23 4 -36t18 -20.5t22.5 -10.5t17.5 -5zM429 720q27 0 55 -3.5t55 -11t51.5 -19.5t43.5 -29l-112 -117
q-21 21 -50.5 30.5t-61.5 11.5l-23 -159l93 -28q63 -20 96 -65.5t23 -115.5q-8 -53 -32.5 -93t-61.5 -68t-83 -44t-96 -21l-10 -70h-66l10 70q-66 0 -129 18t-106 63l122 119q22 -32 57 -45.5t76 -16.5l23 169l-69 22q-73 24 -106.5 67.5t-22.5 119.5q7 47 31 85t59.5 65
t79 44t88.5 22l10 70h66z" />
    <glyph glyph-name="percent" unicode="%" horiz-adv-x="907" 
d="M719 740l77 -47l-514 -725l-70 43zM370 522q6 40 -17.5 68t-63.5 28q-20 0 -38.5 -7.5t-33 -20.5t-24.5 -30.5t-13 -37.5q-5 -40 18.5 -68t63.5 -28q20 0 38.5 7.5t33 20.5t24 30.5t12.5 37.5zM78 522q6 41 26.5 77t51 63t68.5 42.5t79 15.5t74.5 -15.5t56.5 -42.5
t33.5 -63t4.5 -77t-26 -77t-50.5 -63t-68.5 -42.5t-79 -15.5t-74.5 15.5t-57 42.5t-34 63t-4.5 77zM826 187q6 40 -17.5 68t-63.5 28q-20 0 -38.5 -7.5t-33 -20.5t-24.5 -30.5t-13 -37.5q-5 -41 18.5 -69t63.5 -28q20 0 38.5 7.5t33 20.5t24 31t12.5 38zM534 187
q6 41 26.5 77t51 63t68.5 42.5t79 15.5t74.5 -15.5t56.5 -42.5t33.5 -63t4.5 -77t-26.5 -77.5t-51 -63.5t-68.5 -42.5t-79 -15.5t-74.5 15.5t-56.5 42.5t-33.5 63.5t-4.5 77.5z" />
    <glyph glyph-name="ampersand" unicode="&#x26;" horiz-adv-x="759" 
d="M327 302q-16 -9 -31.5 -18.5t-28.5 -21t-22.5 -26.5t-12.5 -35q-5 -39 20.5 -63t62.5 -24q35 0 62.5 15t55.5 37zM418 606q-29 0 -51 -18t-27 -48q-2 -13 2 -25.5t11 -24t16 -21.5t17 -18q13 7 28.5 16.5t29 21t23.5 25t12 28.5q5 31 -13.5 47.5t-47.5 16.5zM618 167
l135 -167h-193l-50 67q-50 -45 -103.5 -65t-116.5 -20q-48 0 -91.5 13t-74.5 39.5t-47 66.5t-8 93q5 34 21 64.5t39.5 55.5t53.5 43.5t63 29.5q-15 19 -26.5 36t-19 36t-10.5 40t1 47q7 48 30.5 82t57 56t75 32t83.5 10q41 0 76.5 -10.5t61 -32t38 -54t6.5 -77.5
q-5 -32 -19 -59t-35.5 -50.5t-48 -42t-54.5 -32.5l77 -97l82 94h174z" />
    <glyph glyph-name="quotesingle" unicode="'" horiz-adv-x="296" 
d="M185 708h126l-40 -282h-126z" />
    <glyph glyph-name="parenleft" unicode="(" horiz-adv-x="314" 
d="M387 672q-37 -48 -67 -92t-53 -89.5t-39 -95t-24 -107.5t-6 -107.5t12 -95t28 -89.5t42 -92l-112 -60l-1 4q-55 103 -77.5 209.5t-5.5 230.5q18 124 70 230.5t136 209.5l3 4z" />
    <glyph glyph-name="parenright" unicode=")" horiz-adv-x="314" 
d="M8 -96q37 48 67 92t53 89.5t38.5 95t23.5 107.5t6.5 107.5t-11.5 95t-28 89.5t-42 92l112 60l1 -4q55 -103 77.5 -209.5t4.5 -230.5q-17 -124 -69 -230.5t-136 -209.5l-3 -4z" />
    <glyph glyph-name="asterisk" unicode="*" horiz-adv-x="482" 
d="M373 570l137 43l17 -95l-137 -42l67 -114l-92 -61l-68 115l-96 -110l-72 61l99 109l-127 46l46 95l124 -47l20 138h102z" />
    <glyph glyph-name="plus" unicode="+" horiz-adv-x="666" 
d="M110 366h211l30 211h126l-30 -211h211l-17 -126h-211l-30 -211h-126l30 211h-211z" />
    <glyph glyph-name="comma" unicode="," horiz-adv-x="296" 
d="M114 162h144l-130 -282h-128z" />
    <glyph glyph-name="hyphen" unicode="-" horiz-adv-x="296" 
d="M298 189h-246l16 120h246z" />
    <glyph glyph-name="hyphen" unicode="&#xad;" horiz-adv-x="296" 
d="M298 189h-246l16 120h246z" />
    <glyph glyph-name="period" unicode="." horiz-adv-x="296" 
d="M68 86q3 19 12.5 36t23.5 29.5t32 19.5t37 7q38 0 61 -27t18 -65q-3 -19 -12.5 -36t-23.5 -29.5t-32 -19.5t-37 -7q-38 0 -61 27t-18 65z" />
    <glyph glyph-name="slash" unicode="/" horiz-adv-x="407" 
d="M403 761l109 -35l-409 -779l-109 35z" />
    <glyph glyph-name="zero" unicode="0" horiz-adv-x="592" 
d="M233 354q-4 -28 -7 -67t3 -75t25 -61t60 -25q40 0 66.5 25t42.5 61t24 75t12 67t7 67t-3 75t-25.5 61t-59.5 25q-41 0 -67 -25t-42 -61t-24 -75t-12 -67zM83 354q9 63 29.5 128t57.5 118t92.5 86.5t134.5 33.5t125 -33.5t68.5 -86.5t25 -118t-6.5 -128t-30 -128t-58 -118
t-92.5 -86.5t-134.5 -33.5t-125 33.5t-68 86.5t-24.5 118t6.5 128z" />
    <glyph glyph-name="one" unicode="1" horiz-adv-x="592" 
d="M364 540l-160 -125l-71 98l259 195h140l-100 -708h-144z" />
    <glyph glyph-name="two" unicode="2" horiz-adv-x="592" 
d="M71 159l310 247q24 19 48 43t29 56q5 36 -18 56.5t-58 20.5q-42 0 -69.5 -26t-35.5 -64l-148 11q11 55 36.5 95.5t62 67.5t83 40.5t98.5 13.5q48 0 88 -13.5t67 -40t39 -66.5t5 -93q-10 -68 -42 -111.5t-77 -78.5l-241 -185h314l-19 -132h-494z" />
    <glyph glyph-name="three" unicode="3" horiz-adv-x="592" 
d="M276 429h49q21 0 41.5 3t38 11.5t30 24t15.5 40.5q4 32 -18 53t-59 21q-35 0 -60.5 -19t-36.5 -47l-161 34q18 46 46.5 78.5t64.5 52.5t78 29.5t87 9.5q47 0 89 -11.5t71.5 -36t44 -61.5t7.5 -88q-8 -59 -45.5 -101t-97.5 -54l-1 -3q31 -4 54 -19t37 -37t18.5 -50
t0.5 -59q-8 -53 -33.5 -93t-64 -66.5t-87 -39.5t-100.5 -13q-47 0 -87 10.5t-70 33t-48.5 57t-22.5 82.5l163 37q2 -38 24 -60t70 -22q49 0 76 25.5t32 65.5q4 30 -6 46.5t-28.5 24.5t-43.5 9.5t-50 1.5h-35z" />
    <glyph glyph-name="four" unicode="4" horiz-adv-x="592" 
d="M405 510v2h-2l-191 -244h159zM353 142h-309l18 126l351 440h164l-62 -440h91l-18 -126h-91l-20 -142h-144z" />
    <glyph glyph-name="five" unicode="5" horiz-adv-x="592" 
d="M598 576h-281l-18 -109q23 8 64 8q54 0 96.5 -16t70.5 -46.5t40 -74t5 -97.5q-9 -60 -36 -107t-67.5 -79.5t-92.5 -49.5t-110 -17q-92 0 -147 45t-66 136l162 36q1 -38 23.5 -61.5t61.5 -23.5q48 0 80.5 30t39.5 76q5 35 -6.5 57.5t-33 36t-50 18.5t-57.5 5q-37 0 -75 -7
t-75 -19l63 391h428z" />
    <glyph glyph-name="six" unicode="6" horiz-adv-x="592" 
d="M441 237q7 48 -20.5 79.5t-77.5 31.5q-51 0 -87 -31.5t-43 -79.5t21 -79.5t78 -31.5q51 0 86.5 31.5t42.5 79.5zM351 455q13 3 25 5t25 2q50 0 88.5 -18t63 -49t34.5 -73.5t3 -90.5q-8 -55 -34.5 -99.5t-66.5 -76.5t-91 -49.5t-106 -17.5q-56 0 -101.5 17.5t-76.5 49.5
t-45.5 76.5t-6.5 99.5q6 38 17.5 69.5t27 59.5t34.5 53.5t39 52.5l190 242h183z" />
    <glyph glyph-name="seven" unicode="7" horiz-adv-x="592" 
d="M467 570h-350l20 138h518l-19 -132l-364 -576h-175z" />
    <glyph glyph-name="eight" unicode="8" horiz-adv-x="592" 
d="M227 215q-5 -37 18.5 -63t68.5 -26t75.5 26t35.5 63q5 38 -18 64t-68 26t-76 -26t-36 -64zM280 504q-5 -33 16 -56t60 -23t66 23t32 56q5 32 -16 55t-60 23t-66 -23t-32 -55zM133 525q7 49 30.5 85.5t59.5 61t80.5 36.5t93.5 12t90.5 -12t70 -36.5t42.5 -61t7 -85.5
q-8 -58 -45 -99t-97 -58l-1 -2q62 -17 90 -61.5t18 -110.5q-7 -51 -33 -90t-64 -64.5t-85 -38.5t-96 -13t-92.5 13t-74 38.5t-45.5 64.5t-8 90q10 66 50 110.5t106 61.5l1 2q-55 17 -80.5 58t-17.5 99z" />
    <glyph glyph-name="nine" unicode="9" horiz-adv-x="592" 
d="M250 471q-7 -48 21 -79.5t78 -31.5q51 0 86.5 31.5t42.5 79.5t-20.5 79.5t-77.5 31.5q-51 0 -87 -31.5t-43 -79.5zM341 253q-13 -3 -25 -5t-25 -2q-50 0 -88.5 18t-63 49t-35 73.5t-3.5 90.5q8 55 34.5 99.5t66.5 76.5t90.5 49.5t106.5 17.5q55 0 101 -17.5t77.5 -49.5
t45.5 -76.5t6 -99.5q-5 -38 -16.5 -69.5t-27 -59.5t-34.5 -53.5t-40 -52.5l-189 -242h-183z" />
    <glyph glyph-name="colon" unicode=":" horiz-adv-x="296" 
d="M113 406q3 19 12.5 36t23.5 29.5t32 19.5t37 7q38 0 61 -27t18 -65q-3 -19 -12.5 -36t-23.5 -29.5t-32 -19.5t-37 -7q-38 0 -61 27t-18 65zM68 86q3 19 12.5 36t23.5 29.5t32 19.5t37 7q38 0 61 -27t18 -65q-3 -19 -12.5 -36t-23.5 -29.5t-32 -19.5t-37 -7q-38 0 -61 27
t-18 65z" />
    <glyph glyph-name="semicolon" unicode=";" horiz-adv-x="296" 
d="M113 406q3 19 12.5 36t23.5 29.5t32 19.5t37 7q38 0 61 -27t18 -65q-3 -19 -12.5 -36t-23.5 -29.5t-32 -19.5t-37 -7q-38 0 -61 27t-18 65zM114 162h144l-130 -282h-128z" />
    <glyph glyph-name="semicolon" unicode="&#x37e;" horiz-adv-x="296" 
d="M113 406q3 19 12.5 36t23.5 29.5t32 19.5t37 7q38 0 61 -27t18 -65q-3 -19 -12.5 -36t-23.5 -29.5t-32 -19.5t-37 -7q-38 0 -61 27t-18 65zM114 162h144l-130 -282h-128z" />
    <glyph glyph-name="less" unicode="&#x3c;" horiz-adv-x="666" 
d="M646 428l-334 -124l-1 -2l300 -124l-19 -136l-478 198l17 126l534 198z" />
    <glyph glyph-name="equal" unicode="=" horiz-adv-x="666" 
d="M97 270h548l-18 -126h-548zM124 462h548l-18 -126h-548z" />
    <glyph glyph-name="greater" unicode="&#x3e;" horiz-adv-x="666" 
d="M105 178l334 124l1 2l-300 124l19 136l478 -198l-17 -126l-534 -198z" />
    <glyph glyph-name="question" unicode="?" horiz-adv-x="556" 
d="M211 86q3 19 12.5 36t23.5 29.5t32 19.5t37 7q38 0 61 -27t18 -65q-3 -19 -12.5 -36t-23.5 -29.5t-32 -19.5t-37 -7q-38 0 -61 27t-18 65zM255 278q5 30 15.5 51t32.5 39q31 27 57.5 47t46 37.5t31 33t14.5 32.5q5 33 -13 51.5t-49 18.5q-47 0 -75.5 -26t-36.5 -63
l-152 10q25 106 100 161.5t180 55.5q46 0 85 -12.5t66 -37.5t40 -62t6 -85q-4 -29 -13 -52.5t-26.5 -46.5t-45 -46.5t-66.5 -51.5q-26 -18 -36.5 -35t-12.5 -34l-4 -29h-150z" />
    <glyph glyph-name="at" unicode="@" horiz-adv-x="800" 
d="M615 337q-5 -14 -10.5 -33t-7.5 -33q-2 -11 2.5 -19.5t20.5 -8.5t32.5 8.5t31 27t26 46.5t17.5 67q9 60 -4 105.5t-43.5 76.5t-76.5 46.5t-103 15.5q-62 0 -116 -21t-95.5 -59t-68.5 -90t-36 -113q-9 -66 5.5 -118t48.5 -88t85.5 -55.5t114.5 -19.5q57 0 106.5 16
t91.5 45h110q-64 -74 -150.5 -112.5t-178.5 -38.5q-80 0 -146.5 27.5t-112.5 76.5t-67 117.5t-9 149.5q11 80 50.5 148t98.5 118t132.5 78.5t152.5 28.5q66 0 126.5 -21.5t104.5 -63.5t66 -103.5t11 -140.5q-11 -80 -44 -128t-72.5 -74t-78.5 -34t-61 -8q-42 0 -58 17
t-14 37h-2q-23 -20 -55 -37t-80 -17q-32 0 -57 12.5t-41 34.5t-22 53t-1 68q6 44 26 84.5t50 72t69.5 50t86.5 18.5q40 0 64.5 -13t35.5 -44h2l14 45h94zM526 364q6 40 -8.5 66t-52.5 26q-23 0 -43 -9.5t-35 -26.5t-25.5 -39.5t-13.5 -48.5q-2 -16 -1.5 -32t6.5 -28.5
t18 -20.5t33 -8q31 0 53 11t36.5 28.5t22 39t10.5 42.5z" />
    <glyph glyph-name="A" unicode="A" horiz-adv-x="741" 
d="M436 502l-117 -220h173zM405 708h129l208 -708h-176l-40 150h-275l-80 -150h-172z" />
    <glyph glyph-name="B" unicode="B" horiz-adv-x="648" 
d="M247 132h140q18 0 37.5 4t35.5 14t27.5 26t14.5 39q4 25 -6.5 40.5t-28 23.5t-39.5 11t-41 3h-118zM288 425h113q18 0 36 4t33.5 13t26 24t13.5 36q3 22 -4.5 36.5t-21.5 22.5t-32.5 11.5t-36.5 3.5h-106zM172 708h264q46 0 91.5 -6.5t79.5 -26t52 -54.5t10 -93
q-8 -60 -47 -99.5t-97 -56.5v-2q34 -5 60.5 -19.5t44 -37t24.5 -52.5t2 -64q-8 -56 -37 -93.5t-70.5 -60.5t-90.5 -33t-96 -10h-290z" />
    <glyph glyph-name="C" unicode="C" horiz-adv-x="685" 
d="M609 524q-20 28 -51 43t-75 15t-84 -17t-72 -47.5t-53 -72.5t-28 -91q-7 -50 2.5 -91.5t32 -72t57 -47.5t76.5 -17q48 0 87.5 20t68.5 56l117 -97q-54 -63 -127.5 -93t-146.5 -30q-83 0 -149 26t-110 74.5t-63 117.5t-7 154t50 154t96 117.5t131.5 74.5t156.5 26
q30 0 61.5 -5.5t61.5 -17.5t56.5 -32t44.5 -49z" />
    <glyph glyph-name="D" unicode="D" horiz-adv-x="759" 
d="M248 144h81q54 0 102.5 11t86 36.5t62.5 67t34 101.5q7 52 -7 90.5t-44 63.5t-72.5 37.5t-91.5 12.5h-92zM172 708h234q85 0 158.5 -19t124.5 -61.5t75 -110.5t10 -165q-12 -86 -53.5 -151.5t-102.5 -110t-136.5 -67.5t-154.5 -23h-255z" />
    <glyph glyph-name="E" unicode="E" horiz-adv-x="630" 
d="M178 708h481l-21 -144h-325l-18 -132h307l-21 -144h-307l-20 -144h343l-20 -144h-499z" />
    <glyph glyph-name="F" unicode="F" horiz-adv-x="593" 
d="M178 708h475l-21 -144h-319l-20 -144h295l-20 -144h-295l-39 -276h-156z" />
    <glyph glyph-name="G" unicode="G" horiz-adv-x="778" 
d="M720 50q-75 -36 -152 -52t-155 -16q-83 0 -149 26t-110 74.5t-63 117.5t-7 154t50 154t96 117.5t131.5 74.5t156.5 26q85 0 154 -20.5t115 -70.5l-127 -120q-26 33 -64 50t-98 17q-50 0 -93 -17t-76 -47.5t-54.5 -72.5t-28.5 -91q-7 -50 2.5 -91.5t34.5 -72t63 -47.5
t88 -17q51 0 89.5 11.5t62.5 23.5l16 115h-127l20 144h277z" />
    <glyph glyph-name="H" unicode="H" horiz-adv-x="759" 
d="M172 708h156l-38 -264h303l38 264h156l-100 -708h-156l43 306h-303l-43 -306h-156z" />
    <glyph glyph-name="I" unicode="I" horiz-adv-x="296" 
d="M170 708h156l-100 -708h-156z" />
    <glyph glyph-name="J" unicode="J" horiz-adv-x="500" 
d="M471 237q-7 -49 -21.5 -95t-44 -81.5t-77 -57t-119.5 -21.5q-84 0 -136 40t-57 125l148 35q-1 -26 17 -44t44 -18q27 0 44 13.5t27 33.5t14.5 43.5t7.5 43.5l64 454h156z" />
    <glyph glyph-name="K" unicode="K" horiz-adv-x="722" 
d="M178 708h156l-42 -294l317 294h204l-362 -329l289 -379h-218l-241 336l-47 -336h-156z" />
    <glyph glyph-name="L" unicode="L" horiz-adv-x="537" 
d="M178 708h156l-80 -564h289l-20 -144h-445z" />
    <glyph glyph-name="M" unicode="M" horiz-adv-x="944" 
d="M172 708h236l98 -462h2l229 462h235l-100 -708h-156l76 543h-2l-262 -543h-119l-103 543h-2l-76 -543h-156z" />
    <glyph glyph-name="N" unicode="N" horiz-adv-x="815" 
d="M172 708h212l231 -492h2l70 492h156l-100 -708h-204l-238 504h-2l-71 -504h-156z" />
    <glyph glyph-name="O" unicode="O" horiz-adv-x="832" 
d="M246 354q-7 -50 2.5 -91.5t34.5 -72t63 -47.5t88 -17t93 17t76 47.5t54.5 72t28.5 91.5q7 49 -3 91t-34.5 72.5t-62.5 47.5t-88 17t-93 -17t-76 -47.5t-54.5 -72.5t-28.5 -91zM84 354q12 85 50 154t96 117.5t131.5 74.5t156.5 26t149.5 -26t110.5 -74.5t63 -117.5t7 -154
t-50.5 -154t-96 -117.5t-131.5 -74.5t-157 -26t-149 26t-110 74.5t-63 117.5t-7 154z" />
    <glyph glyph-name="P" unicode="P" horiz-adv-x="630" 
d="M285 408h104q21 0 41 4t37 13.5t29 26t15 41.5q4 27 -6 43.5t-28.5 25.5t-42 11.5t-45.5 2.5h-80zM172 708h263q55 0 102.5 -10t80.5 -34.5t48.5 -66t6.5 -104.5q-9 -62 -34.5 -104t-64 -67t-88 -35.5t-105.5 -10.5h-114l-39 -276h-156z" />
    <glyph glyph-name="Q" unicode="Q" horiz-adv-x="852" 
d="M247 363q-6 -46 5 -86t36.5 -69.5t62 -46.5t81.5 -17t86.5 17t75 46.5t56.5 69.5t29 86t-5 86t-36.5 69.5t-62 46.5t-81.5 17t-86.5 -17t-75 -46.5t-56.5 -69.5t-29 -86zM847 0h-429q-83 0 -150 24.5t-111.5 71.5t-64 114t-7.5 153q11 80 50 147t97 115t130.5 74.5
t151.5 26.5t144 -27t109.5 -75t64.5 -114.5t9 -146.5q-5 -38 -18.5 -74t-35.5 -68t-52 -57.5t-69 -41.5v-2h198z" />
    <glyph glyph-name="R" unicode="R" horiz-adv-x="648" 
d="M286 415h92q21 0 44.5 1.5t44 9t35 23.5t18.5 45q4 27 -4.5 43t-24.5 24.5t-37.5 11.5t-42.5 3h-102zM172 708h274q54 0 101 -10.5t80 -35t48.5 -66t6.5 -103.5q-11 -75 -56.5 -127.5t-123.5 -66.5l138 -299h-187l-108 283h-77l-40 -283h-156z" />
    <glyph glyph-name="S" unicode="S" horiz-adv-x="574" 
d="M497 535q-15 24 -46 35.5t-60 11.5q-17 0 -36 -4t-35.5 -12.5t-28.5 -22.5t-15 -34q-4 -24 8 -39.5t33.5 -26t49.5 -18.5t57 -18t56.5 -24t47.5 -35.5t29.5 -54t2.5 -78.5q-8 -59 -36.5 -103t-70 -73t-93 -43t-106.5 -14q-69 0 -125 21t-100 68l128 122q20 -32 54 -49.5
t73 -17.5q19 0 39 4.5t36.5 13.5t28 23t14.5 33q3 24 -9 40t-33.5 27.5t-50 21t-58 20t-57.5 24.5t-48 35.5t-30 52.5t-4 75q8 57 36.5 100t70 72t92.5 43.5t103 14.5q60 0 113.5 -17t93.5 -57z" />
    <glyph glyph-name="T" unicode="T" horiz-adv-x="574" 
d="M289 570h-202l20 138h560l-20 -138h-202l-80 -570h-156z" />
    <glyph glyph-name="U" unicode="U" horiz-adv-x="741" 
d="M707 273q-9 -63 -35.5 -116t-69.5 -92t-102 -61t-132 -22q-74 0 -126.5 22t-85 61t-44 92t-2.5 116l62 435h156l-61 -429q-5 -33 2 -61t23.5 -48.5t41 -32t55.5 -11.5t58.5 11.5t49 32t36 48.5t19.5 61l61 429h156z" />
    <glyph glyph-name="V" unicode="V" horiz-adv-x="704" 
d="M102 708h178l109 -464h2l244 464h167l-392 -708h-125z" />
    <glyph glyph-name="W" unicode="W" horiz-adv-x="1000" 
d="M98 708h170l49 -454h2l212 454h145l81 -466h2l185 466h158l-307 -708h-139l-87 490h-2l-225 -490h-134z" />
    <glyph glyph-name="X" unicode="X" horiz-adv-x="722" 
d="M300 370l-186 338h196l116 -248l180 248h189l-277 -335l204 -373h-196l-133 285l-208 -285h-185z" />
    <glyph glyph-name="Y" unicode="Y" horiz-adv-x="648" 
d="M288 302l-208 406h194l112 -265l197 265h185l-324 -406l-42 -302h-156z" />
    <glyph glyph-name="Z" unicode="Z" horiz-adv-x="630" 
d="M55 144l419 426h-346l20 138h535l-20 -138l-412 -426h364l-20 -144h-560z" />
    <glyph glyph-name="bracketleft" unicode="[" horiz-adv-x="296" 
d="M366 642h-90l-99 -708h90l-13 -90h-210l125 888h210z" />
    <glyph glyph-name="backslash" unicode="\" horiz-adv-x="407" 
d="M290 -53l-191 779l119 35l189 -779z" />
    <glyph glyph-name="bracketright" unicode="]" horiz-adv-x="296" 
d="M11 -66h90l49 354l50 354h-90l13 90h210l-125 -888h-210z" />
    <glyph glyph-name="asciicircum" unicode="^" horiz-adv-x="666" 
d="M360 708h146l128 -365h-142l-77 238l-146 -238h-141z" />
    <glyph glyph-name="underscore" unicode="_" horiz-adv-x="500" 
d="M-18 -125l7 50h500l-7 -50h-500z" />
    <glyph glyph-name="grave" unicode="`" 
d="M311 564h-132l-152 144h204z" />
    <glyph glyph-name="a" unicode="a" horiz-adv-x="537" 
d="M351 213q-17 0 -42.5 -1.5t-50 -8.5t-43.5 -21t-22 -39q-2 -14 3 -23.5t14.5 -16.5t22 -10t24.5 -3q22 0 43.5 6t38.5 17t29 28t15 40l5 32h-37zM367 61h-2q-31 -39 -75 -56t-90 -17q-34 0 -64 9.5t-51 28.5t-31.5 47t-5.5 65q9 63 47.5 97.5t91 51t110 19.5t104.5 3
q6 40 -19 63.5t-64 23.5q-37 0 -69.5 -15.5t-60.5 -42.5l-69 82q47 39 106 58.5t119 19.5q66 0 106.5 -16.5t61 -48.5t24 -78.5t-4.5 -107.5l-35 -247h-138z" />
    <glyph glyph-name="b" unicode="b" horiz-adv-x="630" 
d="M239 243q-8 -55 19 -89t84 -34t93 34t44 89t-19 89t-84 34t-93 -34t-44 -89zM173 756h150l-45 -322h2q31 35 73.5 49.5t89.5 14.5q52 0 90 -21.5t62 -57.5t32.5 -82.5t1.5 -97.5q-8 -55 -31.5 -101t-59.5 -79.5t-83 -52t-101 -18.5q-26 0 -48 7t-40 18t-30.5 24.5
t-19.5 26.5h-2l-9 -64h-138z" />
    <glyph glyph-name="c" unicode="c" horiz-adv-x="482" 
d="M428 329q-9 16 -27.5 26.5t-41.5 10.5q-57 0 -93 -34t-44 -89t19 -89t84 -34q25 0 44.5 11t34.5 26l84 -104q-40 -36 -89.5 -50.5t-92.5 -14.5q-56 0 -103 18t-78.5 51.5t-46 80.5t-6.5 105t36 105t69 80.5t93 51.5t108 18q43 0 88.5 -14.5t75.5 -50.5z" />
    <glyph glyph-name="d" unicode="d" horiz-adv-x="630" 
d="M459 243q8 55 -19 89t-84 34t-93 -34t-44 -89t19 -89t84 -34t93 34t44 89zM563 0h-138l9 64h-2q-11 -13 -27.5 -26.5t-37.5 -24.5t-45.5 -18t-49.5 -7q-54 0 -95.5 18.5t-68 52t-37 79.5t-2.5 101q7 51 29 97.5t55.5 82.5t77.5 57.5t96 21.5q47 0 86 -14.5t59 -49.5h2
l45 322h150z" />
    <glyph glyph-name="e" unicode="e" horiz-adv-x="574" 
d="M428 298q6 38 -16 65t-63 27q-25 0 -45 -8t-35.5 -20.5t-25 -29t-13.5 -34.5h198zM525 84q-43 -46 -101.5 -71t-117.5 -25q-56 0 -103 18t-78.5 51.5t-46 80.5t-6.5 105t36 105t69 80.5t93 51.5t108 18q52 0 92 -18t65 -51.5t34 -80.5t1 -105l-6 -47h-348q3 -43 29 -68.5
t70 -25.5q37 0 65 16.5t51 42.5z" />
    <glyph glyph-name="f" unicode="f" horiz-adv-x="370" 
d="M156 366h-99l17 120h99l12 86q6 40 17.5 75.5t36 62.5t64 42.5t100.5 15.5q23 0 45 -2t42 -7l-25 -127q-12 5 -23 7.5t-25 2.5q-36 0 -56 -15.5t-27 -63.5l-11 -77h111l-17 -120h-111l-51 -366h-150z" />
    <glyph glyph-name="g" unicode="g" horiz-adv-x="630" 
d="M220 246q-3 -24 3 -45.5t19.5 -38t34 -26.5t46.5 -10q25 0 48.5 10t42 26.5t31 38t15.5 45.5t-3.5 45.5t-20 38t-34.5 26.5t-46 10q-26 0 -49 -10t-41.5 -26.5t-30.5 -38t-15 -45.5zM569 41q-20 -138 -99.5 -209.5t-221.5 -71.5q-65 0 -126 14.5t-108 56.5l101 124
q30 -29 66.5 -46t82.5 -17q69 0 106 33.5t45 85.5l6 47h-2q-30 -35 -71 -49.5t-75 -14.5q-54 0 -95.5 18.5t-68 52t-37.5 79.5t-3 101q7 48 29 94t55.5 81t77.5 56.5t96 21.5q32 0 57.5 -7t45 -18t32.5 -24.5t20 -26.5h2l9 64h138z" />
    <glyph glyph-name="h" unicode="h" horiz-adv-x="574" 
d="M309 756l-47 -336h2q7 14 20.5 28t32.5 25t43 18t51 7q57 0 90 -17.5t48 -48.5t16 -73t-6 -91l-38 -268h-150l33 238q3 21 5 43.5t-3 41.5t-19 31t-43 12t-48 -10.5t-31 -28t-18.5 -39.5t-9.5 -46l-34 -242h-150l106 756h150z" />
    <glyph glyph-name="i" unicode="i" 
d="M133 639q3 18 12 34t22.5 27.5t30 18.5t34.5 7q36 0 58 -25.5t17 -61.5q-3 -18 -12 -34t-22.5 -27.5t-30 -18.5t-34.5 -7q-36 0 -58 25.5t-17 61.5zM123 486h150l-68 -486h-150z" />
    <glyph glyph-name="j" unicode="j" 
d="M133 639q3 18 12 34t22.5 27.5t30 18.5t34.5 7q36 0 58 -25.5t17 -61.5q-3 -18 -12 -34t-22.5 -27.5t-30 -18.5t-34.5 -7q-36 0 -58 25.5t-17 61.5zM200 -36q-6 -47 -20.5 -84.5t-39 -64t-61.5 -41t-88 -14.5q-17 0 -35 1.5t-34 6.5l27 133q16 -9 38 -9q19 0 31.5 10
t19.5 25t10.5 32t5.5 31l69 496h150z" />
    <glyph glyph-name="k" unicode="k" horiz-adv-x="556" 
d="M159 756h150l-65 -462l193 192h184l-223 -219l160 -267h-189l-129 246h-2l-35 -246h-150z" />
    <glyph glyph-name="l" unicode="l" 
d="M161 756h150l-106 -756h-150z" />
    <glyph glyph-name="m" unicode="m" horiz-adv-x="870" 
d="M121 486h144l-9 -66h2q9 14 24 28t34.5 25t43.5 18t51 7q51 0 87.5 -21t50.5 -66q32 47 72 67t94 20q49 0 80 -16.5t47 -45t18.5 -67t-3.5 -82.5l-40 -287h-150l40 283q5 34 -6.5 58.5t-48.5 24.5q-26 0 -44.5 -8.5t-31 -23.5t-20 -35t-10.5 -42l-36 -257h-150l36 257
q2 13 3.5 32t-2 36t-15.5 29t-38 12q-29 0 -48 -10.5t-31 -28t-18.5 -39.5t-9.5 -46l-34 -242h-150z" />
    <glyph glyph-name="n" unicode="n" horiz-adv-x="574" 
d="M121 486h144l-9 -66h2q9 14 24 28t34.5 25t43.5 18t51 7q57 0 90 -17.5t48 -48.5t16 -73t-6 -91l-38 -268h-150l33 238q3 21 5 43.5t-3 41.5t-19 31t-43 12t-48 -10.5t-31 -28t-18.5 -39.5t-9.5 -46l-34 -242h-150z" />
    <glyph glyph-name="o" unicode="o" horiz-adv-x="610" 
d="M219 243q-8 -55 19 -89t84 -34t93 34t44 89t-19 89t-84 34t-93 -34t-44 -89zM69 243q8 58 36 105t69 80.5t93 51.5t108 18t103 -18t78.5 -51.5t46 -80.5t6.5 -105t-36 -105t-69 -80.5t-93 -51.5t-108 -18t-103 18t-78.5 51.5t-46 80.5t-6.5 105z" />
    <glyph glyph-name="p" unicode="p" horiz-adv-x="630" 
d="M239 243q-8 -55 19 -89t84 -34t93 34t44 89t-19 89t-84 34t-93 -34t-44 -89zM135 486h138l-9 -64h2q10 13 27 26.5t38 24.5t45 18t50 7q54 0 95.5 -18.5t68 -52t37 -79.5t3.5 -101q-7 -51 -29 -97.5t-56 -82.5t-78 -57.5t-96 -21.5q-47 0 -85.5 14.5t-59.5 49.5h-2
l-39 -280h-150z" />
    <glyph glyph-name="q" unicode="q" horiz-adv-x="630" 
d="M459 243q8 55 -19 89t-84 34t-93 -34t-44 -89t19 -89t84 -34t93 34t44 89zM531 -228h-150l39 280h-2q-30 -35 -73 -49.5t-90 -14.5q-52 0 -90 21.5t-61.5 57.5t-32 82.5t-1.5 97.5q7 55 30.5 101t59.5 79.5t83 52t101 18.5q25 0 47.5 -7t40.5 -18t30.5 -24.5t19.5 -26.5
h2l9 64h138z" />
    <glyph glyph-name="r" unicode="r" horiz-adv-x="407" 
d="M121 486h150l-11 -78h2q31 45 67 67.5t86 22.5q13 0 26 -1t23 -4l-19 -137q-15 5 -30.5 7.5t-32.5 2.5q-43 0 -70 -12t-43 -33.5t-24 -51.5t-13 -66l-29 -203h-150z" />
    <glyph glyph-name="s" unicode="s" horiz-adv-x="463" 
d="M376 343q-27 41 -81 41q-19 0 -38.5 -9t-22.5 -31q-3 -18 15 -26.5t45 -15t59 -14t58 -23.5t40.5 -43.5t8.5 -73.5q-7 -47 -31.5 -77.5t-59.5 -49t-76 -26t-80 -7.5q-51 0 -100.5 14.5t-80.5 51.5l105 101q17 -26 40.5 -39.5t57.5 -13.5q25 0 48 7.5t25 27.5
q3 19 -14.5 28.5t-44.5 16t-59 14t-58 22.5t-41 42.5t-8 73.5q6 43 28 74t53.5 51t69.5 29.5t76 9.5q48 0 95 -14t76 -50z" />
    <glyph glyph-name="t" unicode="t" horiz-adv-x="407" 
d="M435 366h-132l-22 -162q-3 -20 -3.5 -36.5t5 -28.5t19 -18.5t37.5 -6.5q12 0 32 2.5t31 11.5l-18 -125q-26 -9 -53.5 -12t-53.5 -3q-38 0 -69 8t-52 25.5t-31 45.5t-4 68l32 231h-96l17 120h96l21 144h150l-21 -144h132z" />
    <glyph glyph-name="u" unicode="u" horiz-adv-x="574" 
d="M521 0h-144l9 66h-2q-9 -14 -24 -28t-34.5 -25t-43.5 -18t-51 -7q-57 0 -90 17.5t-48 48.5t-15.5 73t6.5 91l37 268h150l-33 -238q-3 -21 -5 -43.5t3 -41.5t19 -31t43 -12t48 10.5t31 28t18.5 39.5t9.5 46l34 242h150z" />
    <glyph glyph-name="v" unicode="v" horiz-adv-x="556" 
d="M70 486h162l77 -330h2l160 330h151l-260 -486h-159z" />
    <glyph glyph-name="w" unicode="w" horiz-adv-x="833" 
d="M63 486h160l56 -305h2l126 305h164l47 -305h2l134 305h152l-241 -486h-148l-56 323h-2l-135 -323h-151z" />
    <glyph glyph-name="x" unicode="x" horiz-adv-x="556" 
d="M221 260l-131 226h177l68 -132l101 132h167l-189 -226l150 -260h-177l-83 162l-137 -162h-175z" />
    <glyph glyph-name="y" unicode="y" horiz-adv-x="556" 
d="M322 -79q-21 -39 -39 -69t-42.5 -50.5t-59 -31t-88.5 -10.5q-58 0 -109 18l37 123q33 -15 68 -15q25 0 42 5.5t29 16t21 25.5t20 35l14 28l-144 490h162l80 -321h2l152 321h154z" />
    <glyph glyph-name="z" unicode="z" horiz-adv-x="500" 
d="M55 150l282 216h-246l17 120h420l-20 -144l-295 -222h270l-17 -120h-432z" />
    <glyph glyph-name="braceleft" unicode="{" horiz-adv-x="370" 
d="M334 -156h-105q-27 0 -49 8t-37 26t-21.5 45.5t-0.5 66.5l24 172q3 23 -8.5 37t-28.5 21t-35 9t-27 2l16 114q9 0 27.5 2t37.5 9t34.5 21t18.5 37l24 173q6 39 19.5 66.5t33.5 45t44.5 25.5t52.5 8h105l-16 -114h-49q-23 0 -37 -6t-21.5 -15.5t-11 -21t-4.5 -21.5
l-23 -161q-5 -35 -17.5 -55t-29 -30.5t-34 -14t-33.5 -4.5l-1 -2q16 -1 33 -4t30.5 -13.5t20 -30.5t2.5 -55l-23 -162q-2 -10 -2 -22q0 -11 5.5 -20.5t17.5 -15.5t35 -6h49z" />
    <glyph glyph-name="bar" unicode="|" horiz-adv-x="222" 
d="M154 756h126l-109 -774h-126z" />
    <glyph glyph-name="braceright" unicode="}" horiz-adv-x="370" 
d="M117 732h108q25 0 47 -8t36.5 -26t21 -45.5t0.5 -66.5l-24 -172q-3 -23 8 -37t27.5 -21t34 -9t28.5 -2l-16 -114q-11 0 -29 -2t-37 -9t-33.5 -21t-17.5 -37l-25 -173q-11 -78 -52 -111.5t-97 -33.5h-105l16 114h49q23 0 37 6t21.5 15.5t10.5 21t5 21.5l23 161
q5 35 17.5 55t29 30.5t34 13.5t33.5 5l1 2q-16 1 -33 4t-30.5 13.5t-20.5 30.5t-2 55l23 162q1 10 1.5 21.5t-5 21t-17.5 15.5t-35 6h-49z" />
    <glyph glyph-name="asciitilde" unicode="~" horiz-adv-x="666" 
d="M605 292q-11 -16 -24 -31.5t-30 -27.5t-37.5 -19.5t-45.5 -7.5q-26 0 -53 9.5t-54 22.5q-26 12 -51 24t-45 12q-15 0 -28.5 -6.5t-25.5 -16t-23 -21.5t-21 -24l-21 108q10 16 23.5 31.5t30.5 27.5t37.5 19.5t45.5 7.5q26 0 53 -9.5t54 -22.5q26 -12 51.5 -24t45.5 -12
q15 0 28 6.5t25 16t23 21.5t21 24z" />
    <glyph glyph-name="Euro" horiz-adv-x="592" 
d="M589 75q-39 -39 -100.5 -63t-128.5 -24q-112 0 -171.5 60t-66.5 174h-81l41 90h42q0 9 1 18q2 9 3 19q2 13 4 25t5 24h-68l44 92h52q46 113 132.5 171.5t206.5 58.5q17 0 39.5 -2t44.5 -6t40 -9.5t27 -11.5l-64 -130q-14 10 -42.5 17.5t-63.5 7.5q-51 0 -92 -22.5
t-70 -73.5h235l-43 -92h-226q-3 -11 -5 -22t-3 -23q-2 -11 -3 -21q-2 -10 -2 -20h204l-42 -90h-160q8 -49 36 -76.5t79 -27.5q41 0 72 16t56 42z" />
    <glyph glyph-name="Euro" unicode="&#x20ac;" horiz-adv-x="592" 
d="M589 75q-39 -39 -100.5 -63t-128.5 -24q-112 0 -171.5 60t-66.5 174h-81l41 90h42q0 9 1 18q2 9 3 19q2 13 4 25t5 24h-68l44 92h52q46 113 132.5 171.5t206.5 58.5q17 0 39.5 -2t44.5 -6t40 -9.5t27 -11.5l-64 -130q-14 10 -42.5 17.5t-63.5 7.5q-51 0 -92 -22.5
t-70 -73.5h235l-43 -92h-226q-3 -11 -5 -22t-3 -23q-2 -11 -3 -21q-2 -10 -2 -20h204l-42 -90h-160q8 -49 36 -76.5t79 -27.5q41 0 72 16t56 42z" />
    <glyph glyph-name="Zcaron" horiz-adv-x="630" 
d="M55 144l419 426h-346l20 138h535l-20 -138l-412 -426h364l-20 -144h-560zM381 930l52 -78l73 78h135l-140 -144h-163l-95 144h138z" />
    <glyph glyph-name="Zcaron" unicode="&#x17d;" horiz-adv-x="630" 
d="M55 144l419 426h-346l20 138h535l-20 -138l-412 -426h364l-20 -144h-560zM381 930l52 -78l73 78h135l-140 -144h-163l-95 144h138z" />
    <glyph glyph-name="zcaron" horiz-adv-x="500" 
d="M55 150l282 216h-246l17 120h420l-20 -144l-295 -222h270l-17 -120h-432zM285 708l52 -78l73 78h135l-140 -144h-163l-95 144h138z" />
    <glyph glyph-name="zcaron" unicode="&#x17e;" horiz-adv-x="500" 
d="M55 150l282 216h-246l17 120h420l-20 -144l-295 -222h270l-17 -120h-432zM285 708l52 -78l73 78h135l-140 -144h-163l-95 144h138z" />
    <glyph glyph-name="exclamdown" unicode="&#xa1;" horiz-adv-x="444" 
d="M370 400q-3 -19 -12.5 -36t-23.5 -29.5t-32 -19.5t-37 -7q-38 0 -61 27t-18 65q3 19 12.5 36t23.5 29.5t32 19.5t37 7q38 0 61 -27t18 -65zM182 252h150l-66 -474h-150z" />
    <glyph glyph-name="cent" unicode="&#xa2;" horiz-adv-x="592" 
d="M362 372q-48 -9 -74.5 -45t-33.5 -83q-6 -46 10.5 -81t61.5 -49zM308 -12q-53 3 -93 24t-66 55t-36 79t-3 97q7 53 30 97t58.5 77t81.5 54t100 27l9 66h60l-9 -66q51 0 89.5 -14.5t73.5 -47.5l-110 -102q-17 20 -35.5 29t-35.5 9l-36 -258q11 0 32 6t57 37l76 -107
q-21 -18 -46 -30t-49.5 -19t-47.5 -10t-40 -3l-9 -69h-60z" />
    <glyph glyph-name="sterling" unicode="&#xa3;" horiz-adv-x="592" 
d="M64 114h96l28 198h-96l14 102h96l10 71q6 45 28 87t58 75t85 53t110 20q57 0 110.5 -15t89.5 -53l-115 -107q-18 20 -41.5 31.5t-43.5 11.5q-33 0 -57 -11t-40 -28.5t-25 -40t-12 -45.5l-7 -49h156l-14 -102h-156l-28 -198h253l-16 -114h-499z" />
    <glyph glyph-name="currency" unicode="&#xa4;" horiz-adv-x="592" 
d="M218 354q-4 -28 2.5 -52.5t21.5 -42.5t36.5 -28.5t48.5 -10.5t51.5 10.5t44.5 28.5t33.5 42.5t17.5 52.5t-2.5 52.5t-21.5 42.5t-36.5 28.5t-48.5 10.5t-51.5 -10.5t-44.5 -28.5t-33.5 -42.5t-17.5 -52.5zM113 202q-19 32 -26 70.5t-1 81.5t24 81.5t46 70.5l-42 49l68 59
l43 -48q35 23 74.5 35.5t82.5 12.5t79.5 -12.5t65.5 -35.5l55 48l52 -59l-56 -49q40 -67 28 -152t-71 -152l43 -49l-69 -59l-42 48q-35 -23 -75 -35.5t-83 -12.5t-79 12.5t-65 35.5l-56 -48l-51 59z" />
    <glyph glyph-name="yen" unicode="&#xa5;" horiz-adv-x="592" 
d="M240 158h-169l14 96h169l6 48l-9 20h-157l14 96h100l-144 290h182l112 -264l188 264h182l-226 -290h100l-14 -96h-157l-15 -20l-6 -48h169l-14 -96h-169l-22 -158h-156z" />
    <glyph glyph-name="brokenbar" unicode="&#xa6;" horiz-adv-x="222" 
d="M241 476h-126l39 280h126zM85 262h126l-40 -280h-126z" />
    <glyph glyph-name="section" unicode="&#xa7;" horiz-adv-x="592" 
d="M401 192q37 20 43 61q2 14 -2.5 25.5t-12.5 20t-19 15t-21 11.5l-109 55q-37 -20 -43 -59q-3 -18 2.5 -30.5t16 -22t24 -16.5t26.5 -13zM468 545q-7 29 -30.5 45t-53.5 16q-24 0 -46 -13t-26 -40q-4 -25 17 -42t53.5 -32t70.5 -30.5t69.5 -37.5t50 -53.5t12.5 -76.5
q-5 -42 -34 -77t-68 -53q23 -21 33 -52.5t5 -66.5q-7 -49 -35 -84t-67 -57t-84 -32t-85 -10q-37 0 -71 6t-62 21t-49.5 39t-33.5 60l137 63q2 -18 11.5 -31t23.5 -21.5t31 -12.5t34 -4q12 0 26 2.5t27 8.5t22.5 16t11.5 25q3 24 -17 39.5t-51.5 30t-68.5 29.5t-67 37.5
t-48 55t-11 80.5q8 51 35.5 86.5t72.5 61.5q-26 20 -39 49.5t-8 65.5q6 44 30.5 76t58 53t73 31t77.5 10q32 0 64.5 -5t61 -18t50.5 -34t33 -52z" />
    <glyph glyph-name="dieresis" unicode="&#xa8;" 
d="M311 558q-18 0 -32 7t-23.5 19t-13.5 27.5t-1 32.5q2 16 10.5 31t21 26t28 18t32.5 7t32 -6t25.5 -17t15.5 -26t3 -33q-3 -18 -11.5 -33.5t-21.5 -27.5t-30 -18.5t-35 -6.5zM103 558q-18 0 -32 7t-23.5 19t-13.5 27.5t-1 32.5q2 16 10.5 31t21 26t28 18t32.5 7t32 -6
t25.5 -17t15.5 -26t3 -33q-3 -18 -11.5 -33.5t-21.5 -27.5t-30 -18.5t-35 -6.5z" />
    <glyph glyph-name="copyright" unicode="&#xa9;" horiz-adv-x="800" 
d="M180 354q-8 -58 6 -109.5t45 -89.5t77 -60.5t102 -22.5t108.5 22.5t94.5 60.5t70.5 89.5t36.5 109.5t-6 109.5t-45.5 89.5t-77.5 60.5t-102 22.5t-108 -22.5t-94 -60.5t-70.5 -89.5t-36.5 -109.5zM78 354q11 77 49.5 144.5t96.5 118t129.5 80t148.5 29.5t140.5 -29.5
t107 -80t63.5 -118t9 -144.5t-50 -144.5t-96.5 -118t-129.5 -80t-149 -29.5t-140.5 29.5t-107 80t-63 118t-8.5 144.5zM630 300q-11 -39 -31 -68t-47 -49t-58 -30t-64 -10q-47 0 -82 16.5t-56.5 45.5t-29 68t-1.5 84q6 46 24.5 84.5t47.5 66.5t68 43.5t87 15.5
q68 0 113 -36.5t46 -111.5h-94q-2 32 -22.5 45t-47.5 13q-49 0 -77.5 -32t-36.5 -86q-8 -56 13 -91t65 -35q32 0 56.5 15t32.5 52h94z" />
    <glyph glyph-name="ordfeminine" unicode="&#xaa;" horiz-adv-x="349" 
d="M315 559h-18q-11 0 -27 -1t-31.5 -5t-27 -12.5t-13.5 -22.5q-2 -17 10.5 -22t28.5 -5q29 0 51 16t24 33zM296 468h-2q-14 -23 -41.5 -33t-57.5 -10q-22 0 -41.5 5.5t-33.5 17t-21 28t-4 38.5q5 38 30 59t58 31.5t69.5 12.5t64.5 2q2 18 -10.5 32.5t-38.5 14.5
q-24 0 -45.5 -10t-38.5 -26l-46 49q31 23 69.5 35t76.5 12q43 0 69.5 -10t40 -28.5t16 -46t-2.5 -62.5l-20 -148h-96z" />
    <glyph glyph-name="guillemotleft" unicode="&#xab;" horiz-adv-x="538" 
d="M429 249l92 -173l-100 -61l-126 234l192 234l82 -61zM187 249l92 -173l-100 -61l-126 234l192 234l82 -61z" />
    <glyph glyph-name="logicalnot" unicode="&#xac;" horiz-adv-x="666" 
d="M528 336h-422l18 126h548l-45 -320h-126z" />
    <glyph glyph-name="registered" unicode="&#xae;" horiz-adv-x="800" 
d="M180 354q-8 -58 6 -109.5t45 -89.5t77 -60.5t102 -22.5t108.5 22.5t94.5 60.5t70.5 89.5t36.5 109.5t-6 109.5t-45.5 89.5t-77.5 60.5t-102 22.5t-108 -22.5t-94 -60.5t-70.5 -89.5t-36.5 -109.5zM78 354q11 77 49.5 144.5t96.5 118t129.5 80t148.5 29.5t140.5 -29.5
t107 -80t63.5 -118t9 -144.5t-50 -144.5t-96.5 -118t-129.5 -80t-149 -29.5t-140.5 29.5t-107 80t-63 118t-8.5 144.5zM413 391h41q9 0 19.5 1t20 5t17 12.5t9.5 23.5t-3 23.5t-13 12.5t-18.5 5t-19.5 1h-41zM335 553h138q16 0 43.5 -2t53 -14t42 -37.5t9.5 -72.5
q-4 -30 -14.5 -49.5t-25 -32t-32 -19t-34.5 -8.5l78 -155h-105l-68 150h-17l-21 -150h-102z" />
    <glyph glyph-name="macron" unicode="&#xaf;" 
d="M383 591h-340l14 96h340z" />
    <glyph glyph-name="macron" unicode="&#x2c9;" 
d="M383 591h-340l14 96h340z" />
    <glyph glyph-name="degree" unicode="&#xb0;" horiz-adv-x="400" 
d="M253 376q-36 0 -65 13.5t-49.5 37t-29.5 54.5t-4 67t23 67t44.5 54.5t59.5 37t69 13.5t65 -13.5t49.5 -37t29.5 -54.5t4 -67t-23 -67t-44.5 -54.5t-59.5 -37t-69 -13.5zM265 460q18 0 35 7t30.5 19t22.5 28t12 34q5 37 -17 62.5t-59 25.5q-18 0 -35 -7t-30.5 -19
t-22.5 -28t-12 -34q-5 -37 17 -62.5t59 -25.5z" />
    <glyph glyph-name="plusminus" unicode="&#xb1;" horiz-adv-x="666" 
d="M81 155h548l-18 -126h-548zM122 449h211l18 128h126l-18 -128h211l-18 -126h-211l-18 -128h-126l18 128h-211z" />
    <glyph glyph-name="twosuperior" unicode="&#xb2;" horiz-adv-x="385" 
d="M77 378l208 158q17 12 33 26t18 29q3 21 -13.5 30t-39.5 9q-29 0 -49 -15.5t-25 -38.5l-101 6q15 72 67.5 105t124.5 33q70 0 111.5 -31t33.5 -89q-3 -26 -9.5 -43t-16 -30t-22.5 -23t-29 -21l-155 -108l-1 -2h201l-11 -84h-337z" />
    <glyph glyph-name="threesuperior" unicode="&#xb3;" horiz-adv-x="385" 
d="M221 552h34q14 0 27.5 1.5t24.5 6.5t18.5 14t9.5 23q2 16 -11.5 24.5t-39.5 8.5q-24 0 -43.5 -11.5t-27.5 -32.5l-107 20q26 64 77 89t113 25q32 0 61 -7t49.5 -21t31 -35.5t6.5 -50.5q-5 -35 -29.5 -60.5t-66.5 -32.5v-2q43 -5 63 -34t15 -66q-5 -32 -22.5 -56
t-43.5 -40t-59 -24t-69 -8q-65 0 -109 27t-50 91l112 22q2 -23 16 -36.5t43 -13.5t50 11t25 37q3 17 -3.5 26.5t-19 14t-29 5.5t-33.5 1h-25z" />
    <glyph glyph-name="acute" unicode="&#xb4;" 
d="M231 708h204l-194 -144h-132z" />
    <glyph glyph-name="mu" unicode="&#xb5;" horiz-adv-x="574" 
d="M521 0h-144l9 66h-2q-9 -14 -24 -28t-34.5 -25t-43.5 -18t-51 -7q-17 0 -29 3l-31 -219h-150l100 714h150l-33 -238q-3 -21 -5 -43.5t3 -41.5t19 -31t43 -12t48 10.5t31 28t18.5 39.5t9.5 46l34 242h150z" />
    <glyph glyph-name="mu" unicode="&#x3bc;" horiz-adv-x="574" 
d="M521 0h-144l9 66h-2q-9 -14 -24 -28t-34.5 -25t-43.5 -18t-51 -7q-17 0 -29 3l-31 -219h-150l100 714h150l-33 -238q-3 -21 -5 -43.5t3 -41.5t19 -31t43 -12t48 10.5t31 28t18.5 39.5t9.5 46l34 242h150z" />
    <glyph glyph-name="paragraph" unicode="&#xb6;" horiz-adv-x="620" 
d="M286 359q-109 0 -159.5 45t-39.5 126q8 54 32 88.5t60 54.5t82 27.5t98 7.5h302l-119 -841h-108l105 745h-109l-105 -745h-108z" />
    <glyph glyph-name="periodcentered" unicode="&#xb7;" horiz-adv-x="296" 
d="M96 283q3 19 12.5 36t23.5 29.5t32 19.5t37 7q38 0 61 -27t18 -65q-3 -19 -12.5 -36t-23.5 -29.5t-32 -19.5t-37 -7q-38 0 -61 27t-18 65z" />
    <glyph glyph-name="periodcentered" unicode="&#x2218;" horiz-adv-x="296" 
d="M96 283q3 19 12.5 36t23.5 29.5t32 19.5t37 7q38 0 61 -27t18 -65q-3 -19 -12.5 -36t-23.5 -29.5t-32 -19.5t-37 -7q-38 0 -61 27t-18 65z" />
    <glyph glyph-name="cedilla" unicode="&#xb8;" 
d="M119 -60q22 0 44 -2.5t39 -11t26 -25t5 -44.5q-4 -27 -21 -46t-40 -30t-48 -16t-44 -5q-30 0 -63 8.5t-58 21.5l32 47q11 -5 30 -11t45 -6q12 0 24 1.5t21.5 5t16.5 9.5t8 16q3 18 -13.5 26t-31.5 8q-10 0 -18.5 -2t-18.5 -6l-28 29l75 93h67z" />
    <glyph glyph-name="onesuperior" unicode="&#xb9;" horiz-adv-x="385" 
d="M268 606l-99 -75l-49 66l175 117h96l-59 -425h-108z" />
    <glyph glyph-name="ordmasculine" unicode="&#xba;" horiz-adv-x="397" 
d="M206 575q-3 -27 13.5 -46.5t50.5 -19.5t56.5 19.5t26.5 46.5q4 28 -13.5 47.5t-51.5 19.5t-56 -19.5t-26 -47.5zM104 575q5 34 22.5 62t43.5 47.5t59.5 30.5t70.5 11t67.5 -11t51.5 -30.5t31 -47.5t5 -62q-5 -36 -23 -63.5t-44 -47t-59.5 -29.5t-70.5 -10t-67.5 10
t-51.5 29.5t-30.5 47t-4.5 63.5z" />
    <glyph glyph-name="guillemotright" unicode="&#xbb;" horiz-adv-x="538" 
d="M179 249l-92 173l100 61l126 -234l-192 -234l-82 61zM421 249l-92 173l100 61l126 -234l-192 -234l-82 61z" />
    <glyph glyph-name="onequarter" unicode="&#xbc;" horiz-adv-x="889" 
d="M698 740l77 -47l-514 -725l-70 43zM240 606l-99 -75l-49 66l175 117h96l-59 -425h-108zM759 305h-2l-118 -136h101zM728 85h-209l11 78l236 262h118l-36 -256h57l-12 -84h-57l-12 -85h-108z" />
    <glyph glyph-name="onehalf" unicode="&#xbd;" horiz-adv-x="889" 
d="M698 740l77 -47l-514 -725l-70 43zM557 89l208 158q16 12 32 26t18 29q3 21 -13.5 30t-39.5 9q-29 0 -49 -15.5t-25 -38.5l-101 6q16 72 68.5 105t124.5 33q70 0 111.5 -31t33.5 -89q-4 -26 -10.5 -43t-16 -30t-22.5 -23t-29 -21l-155 -108v-2h201l-12 -84h-337zM240 606
l-99 -75l-49 66l175 117h96l-59 -425h-108z" />
    <glyph glyph-name="threequarters" unicode="&#xbe;" horiz-adv-x="889" 
d="M722 740l77 -47l-514 -725l-70 43zM763 305h-2l-118 -136h101zM732 85h-209l11 78l236 262h118l-36 -256h57l-12 -84h-57l-12 -85h-108zM208 552h34q14 0 27.5 1.5t24.5 6.5t18.5 14t9.5 23q2 16 -11.5 24.5t-39.5 8.5q-24 0 -43.5 -11.5t-27.5 -32.5l-106 20
q12 32 31.5 53.5t44.5 35t53.5 19.5t59.5 6q32 0 61 -7t49.5 -21t31 -35.5t6.5 -50.5q-5 -35 -29.5 -60.5t-66.5 -32.5v-2q43 -5 63 -34t15 -66q-5 -32 -22.5 -56t-43.5 -40t-59 -24t-69 -8q-65 0 -109 27t-50 91l112 22q2 -23 16 -36.5t43 -13.5t50 11t25 37
q3 17 -3.5 26.5t-19 14t-29 5.5t-33.5 1h-25z" />
    <glyph glyph-name="questiondown" unicode="&#xbf;" horiz-adv-x="556" 
d="M413 400q-3 -19 -12.5 -36t-23.5 -29.5t-32 -19.5t-37 -7q-38 0 -61 27t-18 65q3 19 12.5 36t23.5 29.5t32 19.5t37 7q38 0 61 -27t18 -65zM369 208q-4 -30 -15 -51t-32 -39q-32 -27 -58 -47t-45.5 -37.5t-31.5 -33t-14 -32.5q-5 -33 13 -51.5t49 -18.5q47 0 75 26t36 63
l153 -10q-26 -106 -101 -161.5t-180 -55.5q-46 0 -85 12.5t-66 37.5t-40 62t-6 85q4 28 13.5 52t27 47t44.5 46.5t67 51.5q26 18 36 35t12 34l4 29h150z" />
    <glyph glyph-name="Agrave" unicode="&#xc0;" horiz-adv-x="741" 
d="M436 502l-117 -220h173zM405 708h129l208 -708h-176l-40 150h-275l-80 -150h-172zM579 759h-132l-152 144h204z" />
    <glyph glyph-name="Aacute" unicode="&#xc1;" horiz-adv-x="741" 
d="M436 502l-117 -220h173zM405 708h129l208 -708h-176l-40 150h-275l-80 -150h-172zM499 903h204l-194 -144h-132z" />
    <glyph glyph-name="Acircumflex" unicode="&#xc2;" horiz-adv-x="741" 
d="M436 502l-117 -220h173zM405 708h129l208 -708h-176l-40 150h-275l-80 -150h-172zM538 759l-52 78l-73 -78h-135l140 144h163l95 -144h-138z" />
    <glyph glyph-name="Atilde" unicode="&#xc3;" horiz-adv-x="741" 
d="M436 502l-117 -220h173zM405 708h129l208 -708h-176l-40 150h-275l-80 -150h-172zM282 765q8 25 21.5 50t32 44.5t42 31.5t51.5 12q25 0 44 -6t40 -15q13 -5 25.5 -10t27.5 -5q17 0 29 10.5t21 25.5h78q-9 -29 -22 -54t-31 -43.5t-42 -29.5t-55 -11q-22 0 -40 6.5
t-35 14.5q-16 8 -30.5 14.5t-29.5 6.5q-17 0 -29 -14t-19 -28h-79z" />
    <glyph glyph-name="Adieresis" unicode="&#xc4;" horiz-adv-x="741" 
d="M436 502l-117 -220h173zM405 708h129l208 -708h-176l-40 150h-275l-80 -150h-172zM579 753q-18 0 -32 7t-23.5 19t-13.5 27.5t-1 32.5q2 16 10.5 31t21 26t28 18t32.5 7t32 -6t25.5 -17t15.5 -26t3 -33q-3 -18 -11.5 -33.5t-21.5 -27.5t-30 -18.5t-35 -6.5zM371 753
q-18 0 -32 7t-23.5 19t-13.5 27.5t-1 32.5q2 16 10.5 31t21 26t28 18t32.5 7t32 -6t25.5 -17t15.5 -26t3 -33q-3 -18 -11.5 -33.5t-21.5 -27.5t-30 -18.5t-35 -6.5z" />
    <glyph glyph-name="Aring" unicode="&#xc5;" horiz-adv-x="741" 
d="M436 502l-117 -220h173zM405 708h129l208 -708h-176l-40 150h-275l-80 -150h-172zM438 842q-3 -21 10 -36t34 -15t38 15t20 36t-10 36t-34 15t-38 -15t-20 -36zM474 731q-23 0 -42 9t-32 24t-19 35t-3 43t15 43t29 35t38.5 24t44.5 9t42 -9t32 -24t18.5 -35t2.5 -43
t-14.5 -43t-28.5 -35t-38.5 -24t-44.5 -9z" />
    <glyph glyph-name="AE" unicode="&#xc6;" horiz-adv-x="1037" 
d="M613 564h-17l-218 -282h196zM555 150h-263l-116 -150h-191l549 708h538l-21 -144h-282l-18 -132h258l-21 -144h-258l-20 -144h294l-20 -144h-450z" />
    <glyph glyph-name="Ccedilla" unicode="&#xc7;" horiz-adv-x="685" 
d="M609 524q-20 28 -51 43t-75 15t-84 -17t-72 -47.5t-53 -72.5t-28 -91q-7 -50 2.5 -91.5t32 -72t57 -47.5t76.5 -17q48 0 87.5 20t68.5 56l117 -97q-54 -63 -127.5 -93t-146.5 -30q-83 0 -149 26t-110 74.5t-63 117.5t-7 154t50 154t96 117.5t131.5 74.5t156.5 26
q30 0 61.5 -5.5t61.5 -17.5t56.5 -32t44.5 -49zM360 -60q22 0 44 -2.5t39 -11t26 -25t5 -44.5q-4 -27 -21 -46t-40 -30t-48 -16t-44 -5q-30 0 -63 8.5t-58 21.5l32 47q11 -5 30 -11t45 -6q12 0 24 1.5t21.5 5t16.5 9.5t8 16q3 18 -13.5 26t-31.5 8q-10 0 -18.5 -2t-18.5 -6
l-28 29l75 93h67z" />
    <glyph glyph-name="Egrave" unicode="&#xc8;" horiz-adv-x="630" 
d="M178 708h481l-21 -144h-325l-18 -132h307l-21 -144h-307l-20 -144h343l-20 -144h-499zM523 759h-132l-152 144h204z" />
    <glyph glyph-name="Eacute" unicode="&#xc9;" horiz-adv-x="630" 
d="M178 708h481l-21 -144h-325l-18 -132h307l-21 -144h-307l-20 -144h343l-20 -144h-499zM443 903h204l-194 -144h-132z" />
    <glyph glyph-name="Ecircumflex" unicode="&#xca;" horiz-adv-x="630" 
d="M178 708h481l-21 -144h-325l-18 -132h307l-21 -144h-307l-20 -144h343l-20 -144h-499zM482 759l-52 78l-73 -78h-135l140 144h163l95 -144h-138z" />
    <glyph glyph-name="Edieresis" unicode="&#xcb;" horiz-adv-x="630" 
d="M178 708h481l-21 -144h-325l-18 -132h307l-21 -144h-307l-20 -144h343l-20 -144h-499zM523 753q-18 0 -32 7t-23.5 19t-13.5 27.5t-1 32.5q2 16 10.5 31t21 26t28 18t32.5 7t32 -6t25.5 -17t15.5 -26t3 -33q-3 -18 -11.5 -33.5t-21.5 -27.5t-30 -18.5t-35 -6.5zM315 753
q-18 0 -32 7t-23.5 19t-13.5 27.5t-1 32.5q2 16 10.5 31t21 26t28 18t32.5 7t32 -6t25.5 -17t15.5 -26t3 -33q-3 -18 -11.5 -33.5t-21.5 -27.5t-30 -18.5t-35 -6.5z" />
    <glyph glyph-name="Igrave" unicode="&#xcc;" horiz-adv-x="296" 
d="M170 708h156l-100 -708h-156zM356 759h-132l-152 144h204z" />
    <glyph glyph-name="Iacute" unicode="&#xcd;" horiz-adv-x="296" 
d="M170 708h156l-100 -708h-156zM276 903h204l-194 -144h-132z" />
    <glyph glyph-name="Icircumflex" unicode="&#xce;" horiz-adv-x="296" 
d="M170 708h156l-100 -708h-156zM315 759l-52 78l-73 -78h-135l140 144h163l95 -144h-138z" />
    <glyph glyph-name="Idieresis" unicode="&#xcf;" horiz-adv-x="296" 
d="M170 708h156l-100 -708h-156zM356 753q-18 0 -32 7t-23.5 19t-13.5 27.5t-1 32.5q2 16 10.5 31t21 26t28 18t32.5 7t32 -6t25.5 -17t15.5 -26t3 -33q-3 -18 -11.5 -33.5t-21.5 -27.5t-30 -18.5t-35 -6.5zM148 753q-18 0 -32 7t-23.5 19t-13.5 27.5t-1 32.5q2 16 10.5 31
t21 26t28 18t32.5 7t32 -6t25.5 -17t15.5 -26t3 -33q-3 -18 -11.5 -33.5t-21.5 -27.5t-30 -18.5t-35 -6.5z" />
    <glyph glyph-name="Eth" unicode="&#xd0;" horiz-adv-x="759" 
d="M117 318h-60l14 102h60l41 288h234q85 0 158.5 -19t124.5 -61.5t75 -110.5t10 -165q-12 -86 -53.5 -151.5t-102.5 -110t-136.5 -67.5t-154.5 -23h-255zM287 420h198l-14 -102h-198l-25 -174h81q54 0 102.5 11t86 36.5t62.5 67t34 101.5q7 52 -7 90.5t-44 63.5t-72.5 37.5
t-91.5 12.5h-92z" />
    <glyph glyph-name="Ntilde" unicode="&#xd1;" horiz-adv-x="815" 
d="M172 708h212l231 -492h2l70 492h156l-100 -708h-204l-238 504h-2l-71 -504h-156zM319 765q8 25 21.5 50t32 44.5t42 31.5t51.5 12q25 0 44 -6t40 -15q13 -5 25.5 -10t27.5 -5q17 0 29 10.5t21 25.5h78q-9 -29 -22 -54t-31 -43.5t-42 -29.5t-55 -11q-22 0 -40 6.5
t-35 14.5q-16 8 -30.5 14.5t-29.5 6.5q-17 0 -29 -14t-19 -28h-79z" />
    <glyph glyph-name="Ograve" unicode="&#xd2;" horiz-adv-x="832" 
d="M246 354q-7 -50 2.5 -91.5t34.5 -72t63 -47.5t88 -17t93 17t76 47.5t54.5 72t28.5 91.5q7 49 -3 91t-34.5 72.5t-62.5 47.5t-88 17t-93 -17t-76 -47.5t-54.5 -72.5t-28.5 -91zM84 354q12 85 50 154t96 117.5t131.5 74.5t156.5 26t149.5 -26t110.5 -74.5t63 -117.5t7 -154
t-50.5 -154t-96 -117.5t-131.5 -74.5t-157 -26t-149 26t-110 74.5t-63 117.5t-7 154zM624 759h-132l-152 144h204z" />
    <glyph glyph-name="Oacute" unicode="&#xd3;" horiz-adv-x="832" 
d="M246 354q-7 -50 2.5 -91.5t34.5 -72t63 -47.5t88 -17t93 17t76 47.5t54.5 72t28.5 91.5q7 49 -3 91t-34.5 72.5t-62.5 47.5t-88 17t-93 -17t-76 -47.5t-54.5 -72.5t-28.5 -91zM84 354q12 85 50 154t96 117.5t131.5 74.5t156.5 26t149.5 -26t110.5 -74.5t63 -117.5t7 -154
t-50.5 -154t-96 -117.5t-131.5 -74.5t-157 -26t-149 26t-110 74.5t-63 117.5t-7 154zM544 903h204l-194 -144h-132z" />
    <glyph glyph-name="Ocircumflex" unicode="&#xd4;" horiz-adv-x="832" 
d="M246 354q-7 -50 2.5 -91.5t34.5 -72t63 -47.5t88 -17t93 17t76 47.5t54.5 72t28.5 91.5q7 49 -3 91t-34.5 72.5t-62.5 47.5t-88 17t-93 -17t-76 -47.5t-54.5 -72.5t-28.5 -91zM84 354q12 85 50 154t96 117.5t131.5 74.5t156.5 26t149.5 -26t110.5 -74.5t63 -117.5t7 -154
t-50.5 -154t-96 -117.5t-131.5 -74.5t-157 -26t-149 26t-110 74.5t-63 117.5t-7 154zM583 759l-52 78l-73 -78h-135l140 144h163l95 -144h-138z" />
    <glyph glyph-name="Otilde" unicode="&#xd5;" horiz-adv-x="832" 
d="M246 354q-7 -50 2.5 -91.5t34.5 -72t63 -47.5t88 -17t93 17t76 47.5t54.5 72t28.5 91.5q7 49 -3 91t-34.5 72.5t-62.5 47.5t-88 17t-93 -17t-76 -47.5t-54.5 -72.5t-28.5 -91zM84 354q12 85 50 154t96 117.5t131.5 74.5t156.5 26t149.5 -26t110.5 -74.5t63 -117.5t7 -154
t-50.5 -154t-96 -117.5t-131.5 -74.5t-157 -26t-149 26t-110 74.5t-63 117.5t-7 154zM327 765q8 25 21.5 50t32 44.5t42 31.5t51.5 12q25 0 44 -6t40 -15q13 -5 25.5 -10t27.5 -5q17 0 29 10.5t21 25.5h78q-9 -29 -22 -54t-31 -43.5t-42 -29.5t-55 -11q-22 0 -40 6.5
t-35 14.5q-16 8 -30.5 14.5t-29.5 6.5q-17 0 -29 -14t-19 -28h-79z" />
    <glyph glyph-name="Odieresis" unicode="&#xd6;" horiz-adv-x="832" 
d="M246 354q-7 -50 2.5 -91.5t34.5 -72t63 -47.5t88 -17t93 17t76 47.5t54.5 72t28.5 91.5q7 49 -3 91t-34.5 72.5t-62.5 47.5t-88 17t-93 -17t-76 -47.5t-54.5 -72.5t-28.5 -91zM84 354q12 85 50 154t96 117.5t131.5 74.5t156.5 26t149.5 -26t110.5 -74.5t63 -117.5t7 -154
t-50.5 -154t-96 -117.5t-131.5 -74.5t-157 -26t-149 26t-110 74.5t-63 117.5t-7 154zM624 753q-18 0 -32 7t-23.5 19t-13.5 27.5t-1 32.5q2 16 10.5 31t21 26t28 18t32.5 7t32 -6t25.5 -17t15.5 -26t3 -33q-3 -18 -11.5 -33.5t-21.5 -27.5t-30 -18.5t-35 -6.5zM416 753
q-18 0 -32 7t-23.5 19t-13.5 27.5t-1 32.5q2 16 10.5 31t21 26t28 18t32.5 7t32 -6t25.5 -17t15.5 -26t3 -33q-3 -18 -11.5 -33.5t-21.5 -27.5t-30 -18.5t-35 -6.5z" />
    <glyph glyph-name="multiply" unicode="&#xd7;" horiz-adv-x="666" 
d="M237 570l153 -175l196 174l77 -86l-198 -180l155 -173l-105 -93l-151 176l-202 -177l-77 86l200 181l-154 172z" />
    <glyph glyph-name="Oslash" unicode="&#xd8;" horiz-adv-x="832" 
d="M310 164q23 -18 54.5 -28t69.5 -10q50 0 93 17t76 47.5t54.5 72t28.5 91.5q6 42 -0.5 78.5t-23.5 64.5zM616 548q-48 34 -118 34q-50 0 -93 -17t-76 -47.5t-54.5 -72.5t-28.5 -91q-6 -39 -0.5 -73.5t19.5 -63.5zM141 99q-38 48 -53 112.5t-4 142.5q12 85 50 154t96 117.5
t131.5 74.5t156.5 26q131 0 218 -64l106 100l48 -49l-104 -98q40 -48 56.5 -114t5.5 -147q-12 -85 -50.5 -154t-96 -117.5t-131.5 -74.5t-157 -26q-69 0 -125 18t-98 50l-107 -101l-49 48z" />
    <glyph glyph-name="Ugrave" unicode="&#xd9;" horiz-adv-x="741" 
d="M707 273q-9 -63 -35.5 -116t-69.5 -92t-102 -61t-132 -22q-74 0 -126.5 22t-85 61t-44 92t-2.5 116l62 435h156l-61 -429q-5 -33 2 -61t23.5 -48.5t41 -32t55.5 -11.5t58.5 11.5t49 32t36 48.5t19.5 61l61 429h156zM579 759h-132l-152 144h204z" />
    <glyph glyph-name="Uacute" unicode="&#xda;" horiz-adv-x="741" 
d="M707 273q-9 -63 -35.5 -116t-69.5 -92t-102 -61t-132 -22q-74 0 -126.5 22t-85 61t-44 92t-2.5 116l62 435h156l-61 -429q-5 -33 2 -61t23.5 -48.5t41 -32t55.5 -11.5t58.5 11.5t49 32t36 48.5t19.5 61l61 429h156zM499 903h204l-194 -144h-132z" />
    <glyph glyph-name="Ucircumflex" unicode="&#xdb;" horiz-adv-x="741" 
d="M707 273q-9 -63 -35.5 -116t-69.5 -92t-102 -61t-132 -22q-74 0 -126.5 22t-85 61t-44 92t-2.5 116l62 435h156l-61 -429q-5 -33 2 -61t23.5 -48.5t41 -32t55.5 -11.5t58.5 11.5t49 32t36 48.5t19.5 61l61 429h156zM538 759l-52 78l-73 -78h-135l140 144h163l95 -144
h-138z" />
    <glyph glyph-name="Udieresis" unicode="&#xdc;" horiz-adv-x="741" 
d="M707 273q-9 -63 -35.5 -116t-69.5 -92t-102 -61t-132 -22q-74 0 -126.5 22t-85 61t-44 92t-2.5 116l62 435h156l-61 -429q-5 -33 2 -61t23.5 -48.5t41 -32t55.5 -11.5t58.5 11.5t49 32t36 48.5t19.5 61l61 429h156zM579 753q-18 0 -32 7t-23.5 19t-13.5 27.5t-1 32.5
q2 16 10.5 31t21 26t28 18t32.5 7t32 -6t25.5 -17t15.5 -26t3 -33q-3 -18 -11.5 -33.5t-21.5 -27.5t-30 -18.5t-35 -6.5zM371 753q-18 0 -32 7t-23.5 19t-13.5 27.5t-1 32.5q2 16 10.5 31t21 26t28 18t32.5 7t32 -6t25.5 -17t15.5 -26t3 -33q-3 -18 -11.5 -33.5t-21.5 -27.5
t-30 -18.5t-35 -6.5z" />
    <glyph glyph-name="Yacute" unicode="&#xdd;" horiz-adv-x="648" 
d="M288 302l-208 406h194l112 -265l197 265h185l-324 -406l-42 -302h-156zM456 930h204l-194 -144h-132z" />
    <glyph glyph-name="Thorn" unicode="&#xde;" horiz-adv-x="630" 
d="M268 282h104q21 0 41 4t37 13.5t28.5 26t15.5 41.5q4 27 -6.5 43.5t-29 25.5t-42 11.5t-45.5 2.5h-80zM172 708h156l-18 -126h107q55 0 102.5 -10t80.5 -34.5t49 -66t7 -104.5q-9 -62 -35 -104t-64.5 -67t-88 -35.5t-105.5 -10.5h-114l-21 -150h-156z" />
    <glyph glyph-name="germandbls" unicode="&#xdf;" horiz-adv-x="630" 
d="M125 513q36 255 292 255q42 0 82 -10.5t69.5 -33t45 -57t8.5 -82.5q-8 -58 -37.5 -98t-86.5 -62l-1 -2q77 -16 107.5 -72t19.5 -134q-7 -53 -30.5 -95.5t-59.5 -72t-82 -45.5t-98 -16q-46 0 -91 12l17 122q24 -8 48 -8q28 0 54 7t47 21.5t35 36.5t18 52q9 64 -25.5 93
t-93.5 29h-20l17 126h12q38 0 67.5 20t34.5 59q3 19 -3 33.5t-17 24.5t-26.5 15t-33.5 5q-46 0 -77.5 -26.5t-37.5 -71.5l-76 -538h-150z" />
    <glyph glyph-name="agrave" unicode="&#xe0;" horiz-adv-x="537" 
d="M351 213q-17 0 -42.5 -1.5t-50 -8.5t-43.5 -21t-22 -39q-2 -14 3 -23.5t14.5 -16.5t22 -10t24.5 -3q22 0 43.5 6t38.5 17t29 28t15 40l5 32h-37zM367 61h-2q-31 -39 -75 -56t-90 -17q-34 0 -64 9.5t-51 28.5t-31.5 47t-5.5 65q9 63 47.5 97.5t91 51t110 19.5t104.5 3
q6 40 -19 63.5t-64 23.5q-37 0 -69.5 -15.5t-60.5 -42.5l-69 82q47 39 106 58.5t119 19.5q66 0 106.5 -16.5t61 -48.5t24 -78.5t-4.5 -107.5l-35 -247h-138zM450 564h-132l-152 144h204z" />
    <glyph glyph-name="aacute" unicode="&#xe1;" horiz-adv-x="537" 
d="M351 213q-17 0 -42.5 -1.5t-50 -8.5t-43.5 -21t-22 -39q-2 -14 3 -23.5t14.5 -16.5t22 -10t24.5 -3q22 0 43.5 6t38.5 17t29 28t15 40l5 32h-37zM367 61h-2q-31 -39 -75 -56t-90 -17q-34 0 -64 9.5t-51 28.5t-31.5 47t-5.5 65q9 63 47.5 97.5t91 51t110 19.5t104.5 3
q6 40 -19 63.5t-64 23.5q-37 0 -69.5 -15.5t-60.5 -42.5l-69 82q47 39 106 58.5t119 19.5q66 0 106.5 -16.5t61 -48.5t24 -78.5t-4.5 -107.5l-35 -247h-138zM370 708h204l-194 -144h-132z" />
    <glyph glyph-name="acircumflex" unicode="&#xe2;" horiz-adv-x="537" 
d="M351 213q-17 0 -42.5 -1.5t-50 -8.5t-43.5 -21t-22 -39q-2 -14 3 -23.5t14.5 -16.5t22 -10t24.5 -3q22 0 43.5 6t38.5 17t29 28t15 40l5 32h-37zM367 61h-2q-31 -39 -75 -56t-90 -17q-34 0 -64 9.5t-51 28.5t-31.5 47t-5.5 65q9 63 47.5 97.5t91 51t110 19.5t104.5 3
q6 40 -19 63.5t-64 23.5q-37 0 -69.5 -15.5t-60.5 -42.5l-69 82q47 39 106 58.5t119 19.5q66 0 106.5 -16.5t61 -48.5t24 -78.5t-4.5 -107.5l-35 -247h-138zM409 564l-52 78l-73 -78h-135l140 144h163l95 -144h-138z" />
    <glyph glyph-name="atilde" unicode="&#xe3;" horiz-adv-x="537" 
d="M351 213q-17 0 -42.5 -1.5t-50 -8.5t-43.5 -21t-22 -39q-2 -14 3 -23.5t14.5 -16.5t22 -10t24.5 -3q22 0 43.5 6t38.5 17t29 28t15 40l5 32h-37zM367 61h-2q-31 -39 -75 -56t-90 -17q-34 0 -64 9.5t-51 28.5t-31.5 47t-5.5 65q9 63 47.5 97.5t91 51t110 19.5t104.5 3
q6 40 -19 63.5t-64 23.5q-37 0 -69.5 -15.5t-60.5 -42.5l-69 82q47 39 106 58.5t119 19.5q66 0 106.5 -16.5t61 -48.5t24 -78.5t-4.5 -107.5l-35 -247h-138zM153 570q8 25 21.5 50t32 44.5t42 31.5t51.5 12q25 0 44 -6t40 -15q13 -5 25.5 -10t27.5 -5q17 0 29 10.5t21 25.5
h78q-9 -29 -22 -54t-31 -43.5t-42 -29.5t-55 -11q-22 0 -40 6.5t-35 14.5q-16 8 -30.5 14.5t-29.5 6.5q-17 0 -29 -14t-19 -28h-79z" />
    <glyph glyph-name="adieresis" unicode="&#xe4;" horiz-adv-x="537" 
d="M351 213q-17 0 -42.5 -1.5t-50 -8.5t-43.5 -21t-22 -39q-2 -14 3 -23.5t14.5 -16.5t22 -10t24.5 -3q22 0 43.5 6t38.5 17t29 28t15 40l5 32h-37zM367 61h-2q-31 -39 -75 -56t-90 -17q-34 0 -64 9.5t-51 28.5t-31.5 47t-5.5 65q9 63 47.5 97.5t91 51t110 19.5t104.5 3
q6 40 -19 63.5t-64 23.5q-37 0 -69.5 -15.5t-60.5 -42.5l-69 82q47 39 106 58.5t119 19.5q66 0 106.5 -16.5t61 -48.5t24 -78.5t-4.5 -107.5l-35 -247h-138zM450 558q-18 0 -32 7t-23.5 19t-13.5 27.5t-1 32.5q2 16 10.5 31t21 26t28 18t32.5 7t32 -6t25.5 -17t15.5 -26
t3 -33q-3 -18 -11.5 -33.5t-21.5 -27.5t-30 -18.5t-35 -6.5zM242 558q-18 0 -32 7t-23.5 19t-13.5 27.5t-1 32.5q2 16 10.5 31t21 26t28 18t32.5 7t32 -6t25.5 -17t15.5 -26t3 -33q-3 -18 -11.5 -33.5t-21.5 -27.5t-30 -18.5t-35 -6.5z" />
    <glyph glyph-name="aring" unicode="&#xe5;" horiz-adv-x="537" 
d="M351 213q-17 0 -42.5 -1.5t-50 -8.5t-43.5 -21t-22 -39q-2 -14 3 -23.5t14.5 -16.5t22 -10t24.5 -3q22 0 43.5 6t38.5 17t29 28t15 40l5 32h-37zM367 61h-2q-31 -39 -75 -56t-90 -17q-34 0 -64 9.5t-51 28.5t-31.5 47t-5.5 65q9 63 47.5 97.5t91 51t110 19.5t104.5 3
q6 40 -19 63.5t-64 23.5q-37 0 -69.5 -15.5t-60.5 -42.5l-69 82q47 39 106 58.5t119 19.5q66 0 106.5 -16.5t61 -48.5t24 -78.5t-4.5 -107.5l-35 -247h-138zM310 656q-3 -21 10 -36t34 -15t38 15t20 36t-10 36t-34 15t-38 -15t-20 -36zM346 545q-23 0 -42 9t-32 24t-19 35
t-3 43t15 43t29 35t38.5 24t44.5 9t42 -9t32 -24t18.5 -35t2.5 -43t-14.5 -43t-28.5 -35t-38.5 -24t-44.5 -9z" />
    <glyph glyph-name="ae" unicode="&#xe6;" horiz-adv-x="852" 
d="M715 298q6 38 -16 65t-63 27q-25 0 -45 -8t-35.5 -20.5t-25 -29t-13.5 -34.5h198zM193 139q-3 -17 3 -26.5t17 -14.5t24.5 -6.5t25.5 -1.5q54 0 80.5 29t33.5 77h-18q-17 0 -44 -1t-53 -6t-46 -17t-23 -33zM119 420q47 39 106 58.5t119 19.5q43 0 82.5 -14t67.5 -45
q34 29 78.5 44t92.5 15q52 0 92 -18t65 -51.5t34 -80.5t1 -105l-6 -47h-348q3 -43 29 -68.5t70 -25.5q37 0 65 16.5t51 42.5l94 -77q-43 -46 -101.5 -71t-117.5 -25q-60 0 -108.5 17t-74.5 62q-38 -44 -92 -61.5t-118 -17.5q-34 0 -64 9.5t-51 28.5t-31.5 47t-5.5 65
q8 58 44.5 90.5t85.5 48t101.5 18.5t93.5 3h18q6 44 -13 71t-60 27q-37 0 -69.5 -15.5t-60.5 -42.5z" />
    <glyph glyph-name="ccedilla" unicode="&#xe7;" horiz-adv-x="482" 
d="M428 329q-9 16 -27.5 26.5t-41.5 10.5q-57 0 -93 -34t-44 -89t19 -89t84 -34q25 0 44.5 11t34.5 26l84 -104q-40 -36 -89.5 -50.5t-92.5 -14.5q-56 0 -103 18t-78.5 51.5t-46 80.5t-6.5 105t36 105t69 80.5t93 51.5t108 18q43 0 88.5 -14.5t75.5 -50.5zM258 -60
q22 0 44 -2.5t39 -11t26 -25t5 -44.5q-4 -27 -21 -46t-40 -30t-48 -16t-44 -5q-30 0 -63 8.5t-58 21.5l32 47q11 -5 30 -11t45 -6q12 0 24 1.5t21.5 5t16.5 9.5t8 16q3 18 -13.5 26t-31.5 8q-10 0 -18.5 -2t-18.5 -6l-28 29l75 93h67z" />
    <glyph glyph-name="egrave" unicode="&#xe8;" horiz-adv-x="574" 
d="M428 298q6 38 -16 65t-63 27q-25 0 -45 -8t-35.5 -20.5t-25 -29t-13.5 -34.5h198zM525 84q-43 -46 -101.5 -71t-117.5 -25q-56 0 -103 18t-78.5 51.5t-46 80.5t-6.5 105t36 105t69 80.5t93 51.5t108 18q52 0 92 -18t65 -51.5t34 -80.5t1 -105l-6 -47h-348q3 -43 29 -68.5
t70 -25.5q37 0 65 16.5t51 42.5zM468 564h-132l-152 144h204z" />
    <glyph glyph-name="eacute" unicode="&#xe9;" horiz-adv-x="574" 
d="M428 298q6 38 -16 65t-63 27q-25 0 -45 -8t-35.5 -20.5t-25 -29t-13.5 -34.5h198zM525 84q-43 -46 -101.5 -71t-117.5 -25q-56 0 -103 18t-78.5 51.5t-46 80.5t-6.5 105t36 105t69 80.5t93 51.5t108 18q52 0 92 -18t65 -51.5t34 -80.5t1 -105l-6 -47h-348q3 -43 29 -68.5
t70 -25.5q37 0 65 16.5t51 42.5zM388 708h204l-194 -144h-132z" />
    <glyph glyph-name="ecircumflex" unicode="&#xea;" horiz-adv-x="574" 
d="M428 298q6 38 -16 65t-63 27q-25 0 -45 -8t-35.5 -20.5t-25 -29t-13.5 -34.5h198zM525 84q-43 -46 -101.5 -71t-117.5 -25q-56 0 -103 18t-78.5 51.5t-46 80.5t-6.5 105t36 105t69 80.5t93 51.5t108 18q52 0 92 -18t65 -51.5t34 -80.5t1 -105l-6 -47h-348q3 -43 29 -68.5
t70 -25.5q37 0 65 16.5t51 42.5zM427 564l-52 78l-73 -78h-135l140 144h163l95 -144h-138z" />
    <glyph glyph-name="edieresis" unicode="&#xeb;" horiz-adv-x="574" 
d="M428 298q6 38 -16 65t-63 27q-25 0 -45 -8t-35.5 -20.5t-25 -29t-13.5 -34.5h198zM525 84q-43 -46 -101.5 -71t-117.5 -25q-56 0 -103 18t-78.5 51.5t-46 80.5t-6.5 105t36 105t69 80.5t93 51.5t108 18q52 0 92 -18t65 -51.5t34 -80.5t1 -105l-6 -47h-348q3 -43 29 -68.5
t70 -25.5q37 0 65 16.5t51 42.5zM468 558q-18 0 -32 7t-23.5 19t-13.5 27.5t-1 32.5q2 16 10.5 31t21 26t28 18t32.5 7t32 -6t25.5 -17t15.5 -26t3 -33q-3 -18 -11.5 -33.5t-21.5 -27.5t-30 -18.5t-35 -6.5zM260 558q-18 0 -32 7t-23.5 19t-13.5 27.5t-1 32.5q2 16 10.5 31
t21 26t28 18t32.5 7t32 -6t25.5 -17t15.5 -26t3 -33q-3 -18 -11.5 -33.5t-21.5 -27.5t-30 -18.5t-35 -6.5z" />
    <glyph glyph-name="igrave" unicode="&#xec;" 
d="M123 486h150l-68 -486h-150zM311 564h-132l-152 144h204z" />
    <glyph glyph-name="iacute" unicode="&#xed;" 
d="M123 486h150l-68 -486h-150zM231 708h204l-194 -144h-132z" />
    <glyph glyph-name="icircumflex" unicode="&#xee;" 
d="M123 486h150l-68 -486h-150zM270 564l-52 78l-73 -78h-135l140 144h163l95 -144h-138z" />
    <glyph glyph-name="idieresis" unicode="&#xef;" 
d="M123 486h150l-68 -486h-150zM311 558q-18 0 -32 7t-23.5 19t-13.5 27.5t-1 32.5q2 16 10.5 31t21 26t28 18t32.5 7t32 -6t25.5 -17t15.5 -26t3 -33q-3 -18 -11.5 -33.5t-21.5 -27.5t-30 -18.5t-35 -6.5zM103 558q-18 0 -32 7t-23.5 19t-13.5 27.5t-1 32.5q2 16 10.5 31
t21 26t28 18t32.5 7t32 -6t25.5 -17t15.5 -26t3 -33q-3 -18 -11.5 -33.5t-21.5 -27.5t-30 -18.5t-35 -6.5z" />
    <glyph glyph-name="eth" unicode="&#xf0;" horiz-adv-x="610" 
d="M219 243q-8 -55 19 -89t84 -34t93 34t44 89t-19 89t-84 34t-93 -34t-44 -89zM626 710l-130 -51q20 -25 45 -60t44.5 -81.5t29.5 -104.5t0 -129q-10 -68 -35 -123t-65 -93.5t-93 -59.5t-119 -20q-56 0 -103 18t-78.5 51.5t-46 80.5t-6.5 105t36 105t68 80.5t87 51.5t93 18
q26 0 51 -4.5t43 -21.5l3 2q-8 14 -19.5 31.5t-24 35.5t-25.5 34.5t-24 27.5l-113 -45l-62 68l114 46q-8 11 -26.5 29t-33.5 30l132 70q39 -35 69 -72l121 48z" />
    <glyph glyph-name="ntilde" unicode="&#xf1;" horiz-adv-x="574" 
d="M121 486h144l-9 -66h2q9 14 24 28t34.5 25t43.5 18t51 7q57 0 90 -17.5t48 -48.5t16 -73t-6 -91l-38 -268h-150l33 238q3 21 5 43.5t-3 41.5t-19 31t-43 12t-48 -10.5t-31 -28t-18.5 -39.5t-9.5 -46l-34 -242h-150zM171 570q8 25 21.5 50t32 44.5t42 31.5t51.5 12
q25 0 44 -6t40 -15q13 -5 25.5 -10t27.5 -5q17 0 29 10.5t21 25.5h78q-9 -29 -22 -54t-31 -43.5t-42 -29.5t-55 -11q-22 0 -40 6.5t-35 14.5q-16 8 -30.5 14.5t-29.5 6.5q-17 0 -29 -14t-19 -28h-79z" />
    <glyph glyph-name="ograve" unicode="&#xf2;" horiz-adv-x="610" 
d="M219 243q-8 -55 19 -89t84 -34t93 34t44 89t-19 89t-84 34t-93 -34t-44 -89zM69 243q8 58 36 105t69 80.5t93 51.5t108 18t103 -18t78.5 -51.5t46 -80.5t6.5 -105t-36 -105t-69 -80.5t-93 -51.5t-108 -18t-103 18t-78.5 51.5t-46 80.5t-6.5 105zM486 564h-132l-152 144
h204z" />
    <glyph glyph-name="oacute" unicode="&#xf3;" horiz-adv-x="610" 
d="M219 243q-8 -55 19 -89t84 -34t93 34t44 89t-19 89t-84 34t-93 -34t-44 -89zM69 243q8 58 36 105t69 80.5t93 51.5t108 18t103 -18t78.5 -51.5t46 -80.5t6.5 -105t-36 -105t-69 -80.5t-93 -51.5t-108 -18t-103 18t-78.5 51.5t-46 80.5t-6.5 105zM406 708h204l-194 -144
h-132z" />
    <glyph glyph-name="ocircumflex" unicode="&#xf4;" horiz-adv-x="610" 
d="M219 243q-8 -55 19 -89t84 -34t93 34t44 89t-19 89t-84 34t-93 -34t-44 -89zM69 243q8 58 36 105t69 80.5t93 51.5t108 18t103 -18t78.5 -51.5t46 -80.5t6.5 -105t-36 -105t-69 -80.5t-93 -51.5t-108 -18t-103 18t-78.5 51.5t-46 80.5t-6.5 105zM445 564l-52 78l-73 -78
h-135l140 144h163l95 -144h-138z" />
    <glyph glyph-name="otilde" unicode="&#xf5;" horiz-adv-x="610" 
d="M219 243q-8 -55 19 -89t84 -34t93 34t44 89t-19 89t-84 34t-93 -34t-44 -89zM69 243q8 58 36 105t69 80.5t93 51.5t108 18t103 -18t78.5 -51.5t46 -80.5t6.5 -105t-36 -105t-69 -80.5t-93 -51.5t-108 -18t-103 18t-78.5 51.5t-46 80.5t-6.5 105zM189 570q8 25 21.5 50
t32 44.5t42 31.5t51.5 12q25 0 44 -6t40 -15q13 -5 25.5 -10t27.5 -5q17 0 29 10.5t21 25.5h78q-9 -29 -22 -54t-31 -43.5t-42 -29.5t-55 -11q-22 0 -40 6.5t-35 14.5q-16 8 -30.5 14.5t-29.5 6.5q-17 0 -29 -14t-19 -28h-79z" />
    <glyph glyph-name="odieresis" unicode="&#xf6;" horiz-adv-x="610" 
d="M219 243q-8 -55 19 -89t84 -34t93 34t44 89t-19 89t-84 34t-93 -34t-44 -89zM69 243q8 58 36 105t69 80.5t93 51.5t108 18t103 -18t78.5 -51.5t46 -80.5t6.5 -105t-36 -105t-69 -80.5t-93 -51.5t-108 -18t-103 18t-78.5 51.5t-46 80.5t-6.5 105zM486 558q-18 0 -32 7
t-23.5 19t-13.5 27.5t-1 32.5q2 16 10.5 31t21 26t28 18t32.5 7t32 -6t25.5 -17t15.5 -26t3 -33q-3 -18 -11.5 -33.5t-21.5 -27.5t-30 -18.5t-35 -6.5zM278 558q-18 0 -32 7t-23.5 19t-13.5 27.5t-1 32.5q2 16 10.5 31t21 26t28 18t32.5 7t32 -6t25.5 -17t15.5 -26t3 -33
q-3 -18 -11.5 -33.5t-21.5 -27.5t-30 -18.5t-35 -6.5z" />
    <glyph glyph-name="divide" unicode="&#xf7;" horiz-adv-x="666" 
d="M316 492q3 18 12 33.5t22 27t29.5 18.5t34.5 7t32.5 -7t24.5 -18.5t15 -27t2 -33.5q-2 -18 -11 -33.5t-22.5 -27t-30 -18.5t-34.5 -7t-32.5 7t-24.5 18.5t-14.5 27t-2.5 33.5zM263 114q3 18 12 33.5t22 27t29.5 18.5t34.5 7t32.5 -7t24.5 -18.5t15 -27t2 -33.5t-12 -33.5
t-22 -27t-29.5 -18.5t-34.5 -7t-32.5 7t-24.5 18.5t-15 27t-2 33.5zM110 366h548l-17 -126h-548z" />
    <glyph glyph-name="oslash" unicode="&#xf8;" horiz-adv-x="610" 
d="M265 134q25 -14 57 -14q57 0 93 34t44 89q5 33 -4 57zM419 350q-24 16 -63 16q-57 0 -93 -34t-44 -89q-5 -36 6 -63zM107 76q-24 32 -34.5 74t-3.5 93q8 58 36 105t69 80.5t93 51.5t108 18q48 0 87.5 -13t70.5 -36l77 67l40 -45l-75 -66q23 -32 32 -73t2 -89
q-8 -58 -36 -105t-69 -80.5t-93 -51.5t-108 -18q-89 0 -152 46l-83 -73l-41 45z" />
    <glyph glyph-name="ugrave" unicode="&#xf9;" horiz-adv-x="574" 
d="M521 0h-144l9 66h-2q-9 -14 -24 -28t-34.5 -25t-43.5 -18t-51 -7q-57 0 -90 17.5t-48 48.5t-15.5 73t6.5 91l37 268h150l-33 -238q-3 -21 -5 -43.5t3 -41.5t19 -31t43 -12t48 10.5t31 28t18.5 39.5t9.5 46l34 242h150zM468 564h-132l-152 144h204z" />
    <glyph glyph-name="uacute" unicode="&#xfa;" horiz-adv-x="574" 
d="M521 0h-144l9 66h-2q-9 -14 -24 -28t-34.5 -25t-43.5 -18t-51 -7q-57 0 -90 17.5t-48 48.5t-15.5 73t6.5 91l37 268h150l-33 -238q-3 -21 -5 -43.5t3 -41.5t19 -31t43 -12t48 10.5t31 28t18.5 39.5t9.5 46l34 242h150zM388 708h204l-194 -144h-132z" />
    <glyph glyph-name="ucircumflex" unicode="&#xfb;" horiz-adv-x="574" 
d="M521 0h-144l9 66h-2q-9 -14 -24 -28t-34.5 -25t-43.5 -18t-51 -7q-57 0 -90 17.5t-48 48.5t-15.5 73t6.5 91l37 268h150l-33 -238q-3 -21 -5 -43.5t3 -41.5t19 -31t43 -12t48 10.5t31 28t18.5 39.5t9.5 46l34 242h150zM427 564l-52 78l-73 -78h-135l140 144h163l95 -144
h-138z" />
    <glyph glyph-name="udieresis" unicode="&#xfc;" horiz-adv-x="574" 
d="M521 0h-144l9 66h-2q-9 -14 -24 -28t-34.5 -25t-43.5 -18t-51 -7q-57 0 -90 17.5t-48 48.5t-15.5 73t6.5 91l37 268h150l-33 -238q-3 -21 -5 -43.5t3 -41.5t19 -31t43 -12t48 10.5t31 28t18.5 39.5t9.5 46l34 242h150zM468 558q-18 0 -32 7t-23.5 19t-13.5 27.5t-1 32.5
q2 16 10.5 31t21 26t28 18t32.5 7t32 -6t25.5 -17t15.5 -26t3 -33q-3 -18 -11.5 -33.5t-21.5 -27.5t-30 -18.5t-35 -6.5zM260 558q-18 0 -32 7t-23.5 19t-13.5 27.5t-1 32.5q2 16 10.5 31t21 26t28 18t32.5 7t32 -6t25.5 -17t15.5 -26t3 -33q-3 -18 -11.5 -33.5t-21.5 -27.5
t-30 -18.5t-35 -6.5z" />
    <glyph glyph-name="yacute" unicode="&#xfd;" horiz-adv-x="556" 
d="M322 -79q-21 -39 -39 -69t-42.5 -50.5t-59 -31t-88.5 -10.5q-58 0 -109 18l37 123q33 -15 68 -15q25 0 42 5.5t29 16t21 25.5t20 35l14 28l-144 490h162l80 -321h2l152 321h154zM379 708h204l-194 -144h-132z" />
    <glyph glyph-name="thorn" unicode="&#xfe;" horiz-adv-x="630" 
d="M239 243q-8 -55 19 -89t84 -34t93 34t44 89t-19 89t-84 34t-93 -34t-44 -89zM173 756h150l-45 -322h2q10 15 26.5 26.5t36 20t41 13t42.5 4.5q54 0 95.5 -18.5t68 -52t37 -79.5t3.5 -101q-7 -51 -29 -97.5t-56 -82.5t-78 -57.5t-96 -21.5q-47 0 -85.5 14.5t-59.5 49.5h-2
l-39 -280h-150z" />
    <glyph glyph-name="ydieresis" unicode="&#xff;" horiz-adv-x="556" 
d="M322 -79q-21 -39 -39 -69t-42.5 -50.5t-59 -31t-88.5 -10.5q-58 0 -109 18l37 123q33 -15 68 -15q25 0 42 5.5t29 16t21 25.5t20 35l14 28l-144 490h162l80 -321h2l152 321h154zM459 558q-18 0 -32 7t-23.5 19t-13.5 27.5t-1 32.5q2 16 10.5 31t21 26t28 18t32.5 7t32 -6
t25.5 -17t15.5 -26t3 -33q-3 -18 -11.5 -33.5t-21.5 -27.5t-30 -18.5t-35 -6.5zM251 558q-18 0 -32 7t-23.5 19t-13.5 27.5t-1 32.5q2 16 10.5 31t21 26t28 18t32.5 7t32 -6t25.5 -17t15.5 -26t3 -33q-3 -18 -11.5 -33.5t-21.5 -27.5t-30 -18.5t-35 -6.5z" />
    <glyph glyph-name="dotlessi" unicode="&#x131;" 
d="M123 486h150l-68 -486h-150z" />
    <glyph glyph-name="Lslash" unicode="&#x141;" horiz-adv-x="537" 
d="M100 160l-67 -52l19 132l67 52l59 416h156l-40 -281l236 185l-18 -130l-236 -184l-22 -154h289l-20 -144h-445z" />
    <glyph glyph-name="lslash" unicode="&#x142;" 
d="M90 248l-69 -61l18 129l69 61l53 379h150l-32 -229l69 61l-18 -129l-69 -61l-56 -398h-150z" />
    <glyph glyph-name="OE" unicode="&#x152;" horiz-adv-x="1018" 
d="M588 564h-51q-58 0 -108 -13t-88 -39.5t-63 -66t-32 -91.5q-8 -53 6 -92t45 -65.5t77 -39.5t104 -13h51zM726 432h264l-21 -144h-264l-20 -144h300l-20 -144h-531q-71 0 -139.5 20.5t-119.5 63.5t-77.5 110t-13.5 160q12 86 52 152t99 111t134 68t157 23h527l-21 -144
h-288z" />
    <glyph glyph-name="oe" unicode="&#x153;" horiz-adv-x="944" 
d="M798 298q6 38 -16 65t-63 27q-25 0 -45 -8t-35.5 -20.5t-25 -29t-13.5 -34.5h198zM357 366q-57 0 -93.5 -34t-44.5 -89t19.5 -89t84.5 -34t93 34t44 89t-19 89t-84 34zM895 84q-43 -46 -101.5 -71t-117.5 -25q-63 0 -107 15.5t-73 53.5q-43 -39 -92 -54t-100 -15
q-57 0 -103.5 18t-78.5 51.5t-46.5 80.5t-6.5 105t36 105t69 80.5t93 51.5t109 18q54 0 97.5 -18t74.5 -55q37 34 85.5 53.5t114.5 19.5q52 0 92 -18t65 -51.5t34 -80.5t1 -105l-6 -47h-348q3 -43 29 -68.5t70 -25.5q37 0 65 16.5t51 42.5z" />
    <glyph glyph-name="Scaron" unicode="&#x160;" horiz-adv-x="574" 
d="M497 535q-15 24 -46 35.5t-60 11.5q-17 0 -36 -4t-35.5 -12.5t-28.5 -22.5t-15 -34q-4 -24 8 -39.5t33.5 -26t49.5 -18.5t57 -18t56.5 -24t47.5 -35.5t29.5 -54t2.5 -78.5q-8 -59 -36.5 -103t-70 -73t-93 -43t-106.5 -14q-69 0 -125 21t-100 68l128 122q20 -32 54 -49.5
t73 -17.5q19 0 39 4.5t36.5 13.5t28 23t14.5 33q3 24 -9 40t-33.5 27.5t-50 21t-58 20t-57.5 24.5t-48 35.5t-30 52.5t-4 75q8 57 36.5 100t70 72t92.5 43.5t103 14.5q60 0 113.5 -17t93.5 -57zM353 930l52 -78l73 78h135l-140 -144h-163l-95 144h138z" />
    <glyph glyph-name="scaron" unicode="&#x161;" horiz-adv-x="463" 
d="M376 343q-27 41 -81 41q-19 0 -38.5 -9t-22.5 -31q-3 -18 15 -26.5t45 -15t59 -14t58 -23.5t40.5 -43.5t8.5 -73.5q-7 -47 -31.5 -77.5t-59.5 -49t-76 -26t-80 -7.5q-51 0 -100.5 14.5t-80.5 51.5l105 101q17 -26 40.5 -39.5t57.5 -13.5q25 0 48 7.5t25 27.5
q3 19 -14.5 28.5t-44.5 16t-59 14t-58 22.5t-41 42.5t-8 73.5q6 43 28 74t53.5 51t69.5 29.5t76 9.5q48 0 95 -14t76 -50zM267 708l52 -78l73 78h135l-140 -144h-163l-95 144h138z" />
    <glyph glyph-name="Ydieresis" unicode="&#x178;" horiz-adv-x="648" 
d="M288 302l-208 406h194l112 -265l197 265h185l-324 -406l-42 -302h-156zM536 780q-18 0 -32 7t-23.5 19t-13.5 27.5t-1 32.5q2 16 10.5 31t21 26t28 18t32.5 7t32 -6t25.5 -17t15.5 -26t3 -33q-3 -18 -11.5 -33.5t-21.5 -27.5t-30 -18.5t-35 -6.5zM328 780q-18 0 -32 7
t-23.5 19t-13.5 27.5t-1 32.5q2 16 10.5 31t21 26t28 18t32.5 7t32 -6t25.5 -17t15.5 -26t3 -33q-3 -18 -11.5 -33.5t-21.5 -27.5t-30 -18.5t-35 -6.5z" />
    <glyph glyph-name="florin" unicode="&#x192;" horiz-adv-x="592" 
d="M543 332h-146l-99 -292q-14 -41 -34 -74t-47 -56.5t-63 -36t-83 -12.5q-28 0 -55.5 6.5t-51.5 17.5l69 119q9 -6 20.5 -8.5t23.5 -2.5q32 0 51.5 21.5t36.5 73.5l85 244h-114l14 102h134l31 91q19 55 39 92.5t46 60.5t60 32.5t80 9.5q35 0 65.5 -7.5t60.5 -22.5l-69 -113
q-24 11 -50 11q-36 0 -56 -19.5t-35 -63.5l-25 -71h126z" />
    <glyph glyph-name="circumflex" unicode="&#x2c6;" 
d="M270 564l-52 78l-73 -78h-135l140 144h163l95 -144h-138z" />
    <glyph glyph-name="caron" unicode="&#x2c7;" 
d="M165 708l52 -78l73 78h135l-140 -144h-163l-95 144h138z" />
    <glyph glyph-name="breve" unicode="&#x2d8;" 
d="M126 708q1 -15 10 -24t23 -14.5t30.5 -7.5t33.5 -2q39 0 67 7.5t45 40.5h79q-10 -38 -30 -65.5t-47 -45t-59.5 -25.5t-68.5 -8t-67 7.5t-53.5 25t-34 45t-8.5 66.5h80z" />
    <glyph glyph-name="dotaccent" unicode="&#x2d9;" 
d="M207 558q-18 0 -32 7t-23.5 19t-13.5 27.5t-1 32.5q2 16 10.5 31t21 26t28 18t32.5 7t32 -6t25.5 -17t15.5 -26t3 -33q-3 -18 -11.5 -33.5t-21.5 -27.5t-30 -18.5t-35 -6.5z" />
    <glyph glyph-name="ring" unicode="&#x2da;" 
d="M171 656q-3 -21 10 -36t34 -15t38 15t20 36t-10 36t-34 15t-38 -15t-20 -36zM207 545q-23 0 -42 9t-32 24t-19 35t-3 43t15 43t29 35t38.5 24t44.5 9t42 -9t32 -24t18.5 -35t2.5 -43t-14.5 -43t-28.5 -35t-38.5 -24t-44.5 -9z" />
    <glyph glyph-name="ogonek" unicode="&#x2db;" 
d="M177 -198q-27 -19 -55 -30.5t-60 -11.5q-21 0 -39 6t-30.5 18t-19 29.5t-3.5 39.5t16.5 44.5t32 44t40 39.5t39.5 31h68q-14 -11 -31 -26.5t-32 -34t-26 -37.5t-13 -36t7.5 -31.5t27.5 -14.5q14 0 30 7t28 16z" />
    <glyph glyph-name="tilde" unicode="&#x2dc;" 
d="M14 570q8 25 21.5 50t32 44.5t42 31.5t51.5 12q25 0 44 -6t40 -15q13 -5 25.5 -10t27.5 -5q17 0 29 10.5t21 25.5h78q-9 -29 -22 -54t-31 -43.5t-42 -29.5t-55 -11q-22 0 -40 6.5t-35 14.5q-16 8 -30.5 14.5t-29.5 6.5q-17 0 -29 -14t-19 -28h-79z" />
    <glyph glyph-name="hungarumlaut" unicode="&#x2dd;" 
d="M363 708h204l-194 -144h-132zM99 708h204l-194 -144h-132z" />
    <glyph glyph-name="endash" unicode="&#x2013;" horiz-adv-x="500" 
d="M43 309h500l-16 -120h-500z" />
    <glyph glyph-name="emdash" unicode="&#x2014;" horiz-adv-x="1000" 
d="M43 309h1000l-16 -120h-1000z" />
    <glyph glyph-name="quoteleft" unicode="&#x2018;" horiz-adv-x="296" 
d="M229 708h128l-114 -282h-144z" />
    <glyph glyph-name="quoteright" unicode="&#x2019;" horiz-adv-x="296" 
d="M227 426h-128l114 282h144z" />
    <glyph glyph-name="quotesinglbase" unicode="&#x201a;" horiz-adv-x="296" 
d="M149 -126h-128l114 282h144z" />
    <glyph glyph-name="quotedblleft" unicode="&#x201c;" horiz-adv-x="520" 
d="M448 708h128l-114 -282h-144zM234 708h128l-114 -282h-144z" />
    <glyph glyph-name="quotedblright" unicode="&#x201d;" horiz-adv-x="520" 
d="M232 426h-128l114 282h144zM446 426h-128l114 282h144z" />
    <glyph glyph-name="quotedblbase" unicode="&#x201e;" horiz-adv-x="520" 
d="M154 -126h-128l114 282h144zM368 -126h-128l114 282h144z" />
    <glyph glyph-name="dagger" unicode="&#x2020;" horiz-adv-x="592" 
d="M276 372h-190l18 126h190l30 210h138l-30 -210h196l-18 -126h-196l-71 -505h-138z" />
    <glyph glyph-name="daggerdbl" unicode="&#x2021;" horiz-adv-x="592" 
d="M234 47h-193l16 120h193l34 241h-193l17 120h193l26 180h138l-26 -180h193l-17 -120h-193l-34 -241h193l-16 -120h-193l-26 -180h-138z" />
    <glyph glyph-name="bullet" unicode="&#x2022;" horiz-adv-x="500" 
d="M123 354q5 37 23.5 69t46 56t61.5 38t71 14t67 -14t51 -38t30 -56t4 -69t-23.5 -69t-46 -56t-61.5 -38t-71 -14t-67 14t-51 38t-30 56t-4 69z" />
    <glyph glyph-name="ellipsis" unicode="&#x2026;" horiz-adv-x="1000" 
d="M753 86q3 19 12.5 36t23.5 29.5t32 19.5t37 7q38 0 61 -27t18 -65q-3 -19 -12.5 -36t-23.5 -29.5t-32 -19.5t-37 -7q-38 0 -61 27t-18 65zM420 86q3 19 12.5 36t23.5 29.5t32 19.5t37 7q38 0 61 -27t18 -65q-3 -19 -12.5 -36t-23.5 -29.5t-32 -19.5t-37 -7q-38 0 -61 27
t-18 65zM87 86q3 19 12.5 36t23.5 29.5t32 19.5t37 7q38 0 61 -27t18 -65q-3 -19 -12.5 -36t-23.5 -29.5t-32 -19.5t-37 -7q-38 0 -61 27t-18 65z" />
    <glyph glyph-name="perthousand" unicode="&#x2030;" horiz-adv-x="1167" 
d="M656 740l77 -47l-514 -725l-70 43zM901 165q-2 -17 2 -31.5t13.5 -25.5t23 -17.5t30.5 -6.5q16 0 32 6.5t28.5 17.5t21 25.5t10.5 31.5q4 33 -16.5 56.5t-53.5 23.5q-17 0 -32 -6.5t-27.5 -17t-21 -25.5t-10.5 -31zM514 165q-2 -17 2 -31.5t13.5 -25.5t23 -17.5
t30.5 -6.5q16 0 31.5 6.5t28 17.5t21 25.5t10.5 31.5q4 33 -16 56.5t-53 23.5q-17 0 -32 -6.5t-27.5 -17t-21 -25.5t-10.5 -31zM204 544q-2 -17 2 -31.5t13.5 -25.5t23 -17.5t30.5 -6.5q16 0 32 6.5t28.5 17.5t21 25.5t10.5 31.5q5 33 -15.5 56.5t-53.5 23.5q-17 0 -32 -6.5
t-27.5 -17t-21 -25.5t-11.5 -31zM108 544q5 36 23.5 68t45.5 56t61 38t71 14q36 0 66.5 -14t51 -38t30 -56t4.5 -68t-23.5 -68.5t-45.5 -56.5t-61.5 -38t-70.5 -14q-37 0 -67 14t-50.5 38t-30 56.5t-4.5 68.5zM805 165q5 36 23.5 68t46 56t61.5 38t70 14t66.5 -14t51 -38
t30 -56t4.5 -68t-23.5 -68.5t-46 -56.5t-62 -38t-70.5 -14t-66 14t-50.5 38t-30 56.5t-4.5 68.5zM418 165q5 36 23.5 68t45.5 56t61 38t71 14q36 0 66.5 -14t51 -38t29.5 -56t4 -68t-23.5 -68.5t-45.5 -56.5t-61.5 -38t-70.5 -14q-37 0 -67 14t-50 38t-29.5 56.5t-4.5 68.5z
" />
    <glyph glyph-name="guilsinglleft" unicode="&#x2039;" horiz-adv-x="296" 
d="M187 249l92 -173l-100 -61l-126 234l192 234l82 -61z" />
    <glyph glyph-name="guilsinglright" unicode="&#x203a;" horiz-adv-x="296" 
d="M179 249l-92 173l100 61l126 -234l-192 -234l-82 61z" />
    <glyph glyph-name="trademark" unicode="&#x2122;" horiz-adv-x="1000" 
d="M574 708h145l60 -268l136 268h145l-58 -412h-108l37 268h-2l-135 -268h-70l-61 268h-2l-37 -268h-108zM245 612h-119l14 96h346l-14 -96h-119l-44 -316h-108z" />
    <glyph glyph-name="minus" unicode="&#x2212;" horiz-adv-x="666" 
d="M110 366h548l-17 -126h-548z" />
    <glyph glyph-name="fraction" unicode="&#x2215;" horiz-adv-x="167" 
d="M348 740l77 -47l-514 -725l-70 43z" />
    <glyph glyph-name="fi" unicode="&#xfb01;" horiz-adv-x="630" 
d="M156 366h-99l17 120h99l12 86q6 40 17.5 75.5t36 62.5t64 42.5t100.5 15.5q23 0 45 -2t42 -7l-25 -127q-12 5 -23 7.5t-25 2.5q-36 0 -56 -15.5t-27 -63.5l-11 -77h111l-17 -120h-111l-51 -366h-150zM503 639q3 18 12 34t22.5 27.5t30 18.5t34.5 7q36 0 58 -25.5
t17 -61.5q-3 -18 -12 -34t-22.5 -27.5t-30 -18.5t-34.5 -7q-36 0 -58 25.5t-17 61.5zM493 486h150l-68 -486h-150z" />
    <glyph glyph-name="fl" unicode="&#xfb02;" horiz-adv-x="630" 
d="M156 366h-99l17 120h99l12 86q6 40 17.5 75.5t36 62.5t64 42.5t100.5 15.5q23 0 45 -2t42 -7l-25 -127q-12 5 -23 7.5t-25 2.5q-36 0 -56 -15.5t-27 -63.5l-11 -77h111l-17 -120h-111l-51 -366h-150zM531 756h150l-106 -756h-150z" />
    <glyph glyph-name="nonbreakingspace" horiz-adv-x="296" 
 />
    </font>
</defs>
</svg>
